<svg width="16" height="16" viewBox="0 0 16 16" fill="none" xmlns="http://www.w3.org/2000/svg">
<path d="M10.9561 4.21461V6.56849H12.0721C12.0606 6.59132 12.056 6.60731 12.0469 6.621C11.8525 6.89726 11.6559 7.17352 11.4592 7.44749C11.4432 7.4726 11.402 7.49087 11.3723 7.49087C11.2374 7.49543 11.1025 7.49087 10.9607 7.49087C10.9607 7.52055 10.9584 7.54338 10.9584 7.56849C10.9584 8.32877 10.9584 9.08676 10.9584 9.84703C10.9584 9.88813 10.9744 9.93379 10.9973 9.96575C11.1825 10.2169 11.3792 10.4589 11.5598 10.7146C11.6673 10.8653 11.8114 10.9178 11.9806 10.9384C11.9874 10.9384 11.9943 10.9406 12.0149 10.9475C11.537 11.3744 11.0636 11.7922 10.5857 12.2192C10.142 11.6438 9.69838 11.0731 9.25475 10.5C9.35994 10.4201 9.35765 10.2968 9.37824 10.1849C9.38738 10.1416 9.3851 10.0982 9.3851 10.0525C9.3851 9.21689 9.38281 8.38356 9.38052 7.54794V7.49772H8.73565V7.56849C8.73565 8.59361 8.73565 9.61872 8.74022 10.6438C8.74022 10.7854 8.79053 10.9224 8.882 11.0365C8.91402 11.0753 8.91631 11.0982 8.87514 11.1324C8.31717 11.6256 7.76148 12.121 7.2058 12.6142C7.19894 12.621 7.18979 12.6256 7.1715 12.6393C7.1715 12.6027 7.16692 12.5753 7.16692 12.5479V10.2534C7.16692 9.71461 7.16006 9.17808 7.16235 8.63927C7.16235 7.52055 7.16464 6.40183 7.16921 5.2831C7.16921 5.22146 7.1532 5.1758 7.11433 5.12785C6.89708 4.85388 6.67527 4.57991 6.46946 4.29452C6.35969 4.14384 6.2202 4.08676 6.04869 4.07306C6.03726 4.07306 6.02582 4.07306 5.99609 4.06849C7.15092 3.03881 8.29659 2.02055 9.44455 1C9.6961 1.33105 9.94307 1.65525 10.1923 1.97945C10.3227 2.15068 10.4553 2.32192 10.5879 2.49087C10.6588 2.58219 10.7137 2.68265 10.7206 2.79909C10.7274 2.92466 10.684 3.03881 10.5879 3.12329C10.2221 3.44749 9.85617 3.77169 9.488 4.09589C9.46742 4.11187 9.44455 4.12557 9.40568 4.15068C9.40568 4.06621 9.41025 4.00228 9.40568 3.93836C9.39653 3.83105 9.33707 3.74658 9.27304 3.66438C8.97805 3.2831 8.68306 2.89726 8.38806 2.5137C8.37434 2.49543 8.35833 2.47717 8.34233 2.4589C8.12966 2.6484 7.91927 2.83562 7.7066 3.02511C7.88268 3.25799 8.05877 3.4863 8.23256 3.71689C8.44752 3.99772 8.66019 4.28082 8.87743 4.55936C8.91173 4.60502 8.91402 4.63014 8.87743 4.67808C8.78825 4.78995 8.74251 4.92009 8.74251 5.06393C8.74251 5.56393 8.74251 6.06164 8.74251 6.56621H9.37137C9.39653 6.28767 9.4011 5.99543 9.20444 5.78082C9.78528 5.26484 10.3661 4.74658 10.9607 4.21689H10.9584L10.9561 4.21461Z" fill="#FFF6F6"/>
<path d="M6.7049 13.0571C6.12177 13.5753 5.54321 14.0913 4.95323 14.6142V9.14612H4.29692C4.31979 9.10959 4.33122 9.08676 4.34723 9.06621C4.53246 8.80365 4.71998 8.54109 4.9052 8.27625C4.93036 8.23972 4.94637 8.19178 4.94865 8.1484C4.95323 7.87443 4.95094 7.60274 4.94865 7.32876C4.94865 7.28995 4.93493 7.24657 4.91206 7.21689C4.65366 6.88128 4.39297 6.54794 4.13227 6.21233C4.05681 6.11415 3.94705 6.09817 3.83728 6.08447C3.80984 6.08219 3.78468 6.07991 3.73438 6.07534C4.23975 5.62557 4.72912 5.19178 5.22535 4.74886C5.7193 5.39726 6.21095 6.04109 6.7049 6.6895C6.53796 6.84475 6.51967 7.05023 6.51967 7.26255C6.51967 9.02739 6.51967 10.79 6.51967 12.5525C6.51967 12.7374 6.56998 12.9087 6.7049 13.0548V13.0571Z" fill="#FFF6F6"/>
<path d="M7.71331 15H5.48828C6.76888 13.8607 8.03804 12.7352 9.31406 11.5982C9.57932 11.9452 9.8423 12.29 10.1076 12.6393C10.0756 12.669 10.0481 12.6941 10.0184 12.7192C9.29348 13.3653 8.56628 14.0091 7.84137 14.6553C7.80707 14.6849 7.77277 14.7192 7.74762 14.758C7.70417 14.8265 7.66072 14.8995 7.71331 14.9977V15Z" fill="#FFF6F6"/>
<path d="M4.21602 11.0868C4.07424 10.9452 3.93018 10.8014 3.79297 10.6644C3.93475 10.5228 4.07882 10.379 4.21602 10.242C4.35094 10.3767 4.49501 10.5228 4.63908 10.6644C4.50416 10.7991 4.36009 10.9429 4.21602 11.0868Z" fill="#FFF6F6"/>
<path d="M3.80078 11.7626C3.93341 11.6301 4.07748 11.4863 4.21697 11.347C4.35418 11.484 4.49825 11.6301 4.63545 11.7671C4.50053 11.9018 4.35647 12.0457 4.21926 12.1804C4.08663 12.0479 3.94027 11.9018 3.80078 11.7603V11.7626Z" fill="#FFF6F6"/>
<path d="M4.65413 12.8721C4.5032 13.0228 4.36142 13.1644 4.22193 13.3036C4.08015 13.1621 3.93608 13.0183 3.78516 12.8676C3.91093 12.742 4.04585 12.605 4.18534 12.4726C4.19678 12.4612 4.24022 12.4657 4.25395 12.4794C4.38886 12.6096 4.5215 12.742 4.65184 12.8721H4.65413Z" fill="#FFF6F6"/>
<path d="M11.4141 9.4178C11.5558 9.27853 11.6999 9.13241 11.8417 8.99086C11.9812 9.13241 12.1252 9.27853 12.2647 9.42008C12.1252 9.55935 11.9812 9.70319 11.8394 9.84474C11.6976 9.70547 11.5536 9.56164 11.4141 9.42008V9.4178Z" fill="#FFF6F6"/>
<path d="M11.8486 8.73745C11.6999 8.58905 11.5558 8.44522 11.4141 8.30595C11.5536 8.16439 11.6976 8.02056 11.8486 7.86987C11.9766 8.00001 12.1115 8.13471 12.2419 8.2717C12.2533 8.2854 12.2556 8.32878 12.2419 8.34019C12.1092 8.47718 11.9743 8.6096 11.8463 8.73974L11.8486 8.73745Z" fill="#FFF6F6"/>
</svg>
