<svg width="328" height="492" viewBox="0 0 328 492" fill="none" xmlns="http://www.w3.org/2000/svg">
<mask id="path-1-inside-1_708_574" fill="white">
<path fill-rule="evenodd" clip-rule="evenodd" d="M28.9749 0H299.009L327.992 28.9828L328 28.9749V463.008L327.992 463L299.001 491.991L299.009 492H28.9749L28.9836 491.991L0 463.008V28.9749L28.9749 0Z"/>
</mask>
<path d="M299.009 0L300.424 -1.41421L299.838 -2H299.009V0ZM28.9749 0V-2H28.1465L27.5607 -1.41421L28.9749 0ZM327.992 28.9828L326.578 30.397L327.992 31.8112L329.406 30.397L327.992 28.9828ZM328 28.9749H330V24.1465L326.586 27.5607L328 28.9749ZM328 463.008L326.586 464.422L330 467.836V463.008H328ZM327.992 463L329.406 461.586L327.992 460.172L326.578 461.586L327.992 463ZM299.001 491.991L297.587 490.577L296.172 491.991L297.587 493.406L299.001 491.991ZM299.009 492V494H303.838L300.424 490.586L299.009 492ZM28.9749 492L27.5607 490.586L24.1465 494H28.9749V492ZM28.9836 491.991L30.3978 493.406L31.812 491.991L30.3978 490.577L28.9836 491.991ZM0 463.008H-2V463.836L-1.41421 464.422L0 463.008ZM0 28.9749L-1.41421 27.5607L-2 28.1465V28.9749H0ZM299.009 -2H28.9749V2H299.009V-2ZM329.406 27.5685L300.424 -1.41421L297.595 1.41421L326.578 30.397L329.406 27.5685ZM326.586 27.5607L326.578 27.5685L329.406 30.397L329.414 30.3892L326.586 27.5607ZM330 463.008V28.9749H326V463.008H330ZM326.578 464.414L326.586 464.422L329.414 461.594L329.406 461.586L326.578 464.414ZM300.415 493.406L329.406 464.414L326.578 461.586L297.587 490.577L300.415 493.406ZM300.424 490.586L300.415 490.577L297.587 493.406L297.595 493.414L300.424 490.586ZM28.9749 494H299.009V490H28.9749V494ZM27.5694 490.577L27.5607 490.586L30.3891 493.414L30.3978 493.406L27.5694 490.577ZM-1.41421 464.422L27.5694 493.406L30.3978 490.577L1.41421 461.594L-1.41421 464.422ZM-2 28.9749V463.008H2V28.9749H-2ZM27.5607 -1.41421L-1.41421 27.5607L1.41421 30.3892L30.3892 1.41421L27.5607 -1.41421Z" fill="#FFF6F6" mask="url(#path-1-inside-1_708_574)"/>
</svg>
