<svg width="36" height="36" viewBox="0 0 36 36" fill="none" xmlns="http://www.w3.org/2000/svg">
<g clip-path="url(#clip0_711_792)">
<path d="M18 8.16094C21.2063 8.16094 21.5859 8.175 22.8469 8.23125C24.0188 8.28281 24.6516 8.47969 25.0734 8.64375C25.6313 8.85938 26.0344 9.12188 26.4516 9.53906C26.8734 9.96094 27.1313 10.3594 27.3469 10.9172C27.5109 11.3391 27.7078 11.9766 27.7594 13.1437C27.8156 14.4094 27.8297 14.7891 27.8297 17.9906C27.8297 21.1969 27.8156 21.5766 27.7594 22.8375C27.7078 24.0094 27.5109 24.6422 27.3469 25.0641C27.1313 25.6219 26.8687 26.025 26.4516 26.4422C26.0297 26.8641 25.6313 27.1219 25.0734 27.3375C24.6516 27.5016 24.0141 27.6984 22.8469 27.75C21.5813 27.8062 21.2016 27.8203 18 27.8203C14.7938 27.8203 14.4141 27.8062 13.1531 27.75C11.9813 27.6984 11.3484 27.5016 10.9266 27.3375C10.3688 27.1219 9.96563 26.8594 9.54844 26.4422C9.12656 26.0203 8.86875 25.6219 8.65313 25.0641C8.48906 24.6422 8.29219 24.0047 8.24063 22.8375C8.18438 21.5719 8.17031 21.1922 8.17031 17.9906C8.17031 14.7844 8.18438 14.4047 8.24063 13.1437C8.29219 11.9719 8.48906 11.3391 8.65313 10.9172C8.86875 10.3594 9.13125 9.95625 9.54844 9.53906C9.97031 9.11719 10.3688 8.85938 10.9266 8.64375C11.3484 8.47969 11.9859 8.28281 13.1531 8.23125C14.4141 8.175 14.7938 8.16094 18 8.16094ZM18 6C14.7422 6 14.3344 6.01406 13.0547 6.07031C11.7797 6.12656 10.9031 6.33281 10.1438 6.62812C9.35156 6.9375 8.68125 7.34531 8.01563 8.01562C7.34531 8.68125 6.9375 9.35156 6.62813 10.1391C6.33281 10.9031 6.12656 11.775 6.07031 13.05C6.01406 14.3344 6 14.7422 6 18C6 21.2578 6.01406 21.6656 6.07031 22.9453C6.12656 24.2203 6.33281 25.0969 6.62813 25.8563C6.9375 26.6484 7.34531 27.3188 8.01563 27.9844C8.68125 28.65 9.35156 29.0625 10.1391 29.3672C10.9031 29.6625 11.775 29.8687 13.05 29.925C14.3297 29.9812 14.7375 29.9953 17.9953 29.9953C21.2531 29.9953 21.6609 29.9812 22.9406 29.925C24.2156 29.8687 25.0922 29.6625 25.8516 29.3672C26.6391 29.0625 27.3094 28.65 27.975 27.9844C28.6406 27.3188 29.0531 26.6484 29.3578 25.8609C29.6531 25.0969 29.8594 24.225 29.9156 22.95C29.9719 21.6703 29.9859 21.2625 29.9859 18.0047C29.9859 14.7469 29.9719 14.3391 29.9156 13.0594C29.8594 11.7844 29.6531 10.9078 29.3578 10.1484C29.0625 9.35156 28.6547 8.68125 27.9844 8.01562C27.3188 7.35 26.6484 6.9375 25.8609 6.63281C25.0969 6.3375 24.225 6.13125 22.95 6.075C21.6656 6.01406 21.2578 6 18 6Z" fill="#FFF6F6"/>
<path d="M18 11.8359C14.5969 11.8359 11.8359 14.5969 11.8359 18C11.8359 21.4031 14.5969 24.1641 18 24.1641C21.4031 24.1641 24.1641 21.4031 24.1641 18C24.1641 14.5969 21.4031 11.8359 18 11.8359ZM18 21.9984C15.7922 21.9984 14.0016 20.2078 14.0016 18C14.0016 15.7922 15.7922 14.0016 18 14.0016C20.2078 14.0016 21.9984 15.7922 21.9984 18C21.9984 20.2078 20.2078 21.9984 18 21.9984Z" fill="#FFF6F6"/>
<path d="M25.8469 11.5921C25.8469 12.389 25.2 13.0312 24.4078 13.0312C23.6109 13.0312 22.9688 12.3843 22.9688 11.5921C22.9688 10.7953 23.6156 10.1531 24.4078 10.1531C25.2 10.1531 25.8469 10.8 25.8469 11.5921Z" fill="#FFF6F6"/>
</g>
<defs>
<clipPath id="clip0_711_792">
<rect width="24" height="24" fill="white" transform="translate(6 6)"/>
</clipPath>
</defs>
</svg>
