<svg width="129" height="24" viewBox="0 0 129 24" fill="none" xmlns="http://www.w3.org/2000/svg">
<mask id="path-1-outside-1_734_8056" maskUnits="userSpaceOnUse" x="-1" y="-1" width="131" height="26" fill="black">
<rect fill="white" x="-1" y="-1" width="131" height="26"/>
<path d="M2.05054 1.44067C2.59741 4.44849 2.87085 7.31104 2.87085 10.0283C5.10962 8.79785 7.83545 7.18286 11.0483 5.18335C11.1851 5.18335 11.3645 5.08936 11.5867 4.90137C12.3215 5.48242 12.689 6.03784 12.689 6.56763C10.1768 7.88354 7.45947 9.54126 4.53711 11.5408C6.82715 14.1042 9.31372 17.0095 11.9968 20.2566V20.4104C11.8088 20.7522 11.3047 21.1196 10.4844 21.5127C7.2373 17.5308 4.74219 14.6255 2.99902 12.7969C2.69141 12.7969 2.37524 13.3523 2.05054 14.4631L2.17871 14.7195C2.09326 15.4714 1.95654 15.8474 1.76855 15.8474C1.76855 16.6335 2.09326 17.3257 2.74268 17.9238V18.7441C2.74268 18.9492 2.69141 19.1372 2.58887 19.3081C2.69141 19.4619 2.74268 19.6414 2.74268 19.8464V20.0002C2.28125 20.4788 2.05054 20.7949 2.05054 20.9487C2.13599 21.1367 2.17871 21.282 2.17871 21.3845H1.07642C0.888428 21.3845 0.794434 21.2905 0.794434 21.1025V20.4104C0.794434 19.8123 0.888428 17.2231 1.07642 12.6431V12.5149C1.07642 9.83179 0.751709 6.2771 0.102295 1.85083C0.444092 1.57739 1.09351 1.44067 2.05054 1.44067ZM21.6868 0.7229C22.4558 0.962158 23.9768 2.57715 26.2498 5.56787C26.4036 5.56787 28.4287 7.73828 32.3252 12.0791C32.1201 12.1475 31.3425 13.301 29.9924 15.5398C29.7703 15.5398 28.198 17.7102 25.2756 22.051C24.592 22.9739 24.2246 23.4353 24.1733 23.4353H24.0195C23.9512 23.4353 23.635 23.1106 23.071 22.4612C22.9685 22.4612 22.9172 22.5125 22.9172 22.615L22.2251 22.4612L21.251 22.615C20.7383 21.6409 19.4053 19.7952 17.252 17.0779C15.6797 14.9246 14.8936 13.8137 14.8936 13.7454C15.5771 13.5745 16.1326 12.9763 16.5598 11.9509C16.6794 11.3015 16.8589 10.9768 17.0981 10.9768C17.0981 11.0623 17.1494 11.105 17.252 11.105C17.4399 10.8145 17.5339 10.5837 17.5339 10.4128L17.3801 9.59253C17.6536 9.57544 18.0723 8.55859 18.6362 6.54199C20.2085 3.31201 21.2253 1.37231 21.6868 0.7229ZM22.0969 3.77344C19.5164 9.63525 18.0381 13.0959 17.6621 14.1555C18.3457 15.3005 20.1487 17.7444 23.071 21.4871C23.071 21.5896 23.0198 21.6409 22.9172 21.6409C23.0198 21.8118 23.071 21.9485 23.071 22.051H23.1992C23.1992 21.5725 24.9509 18.9407 28.4543 14.1555C28.5227 13.9333 28.9414 13.2925 29.7104 12.2329C26.019 7.97754 23.4812 5.15771 22.0969 3.77344ZM23.6094 21.9229V22.1792H23.7632V21.9229H23.6094ZM46.3987 1.44067C46.9456 4.44849 47.219 7.31104 47.219 10.0283C49.4578 8.79785 52.1836 7.18286 55.3965 5.18335C55.5332 5.18335 55.7126 5.08936 55.9348 4.90137C56.6697 5.48242 57.0371 6.03784 57.0371 6.56763C54.5249 7.88354 51.8076 9.54126 48.8853 11.5408C51.1753 14.1042 53.6619 17.0095 56.345 20.2566V20.4104C56.157 20.7522 55.6528 21.1196 54.8325 21.5127C51.5854 17.5308 49.0903 14.6255 47.3472 12.7969C47.0396 12.7969 46.7234 13.3523 46.3987 14.4631L46.5269 14.7195C46.4414 15.4714 46.3047 15.8474 46.1167 15.8474C46.1167 16.6335 46.4414 17.3257 47.0908 17.9238V18.7441C47.0908 18.9492 47.0396 19.1372 46.937 19.3081C47.0396 19.4619 47.0908 19.6414 47.0908 19.8464V20.0002C46.6294 20.4788 46.3987 20.7949 46.3987 20.9487C46.4841 21.1367 46.5269 21.282 46.5269 21.3845H45.4246C45.2366 21.3845 45.1426 21.2905 45.1426 21.1025V20.4104C45.1426 19.8123 45.2366 17.2231 45.4246 12.6431V12.5149C45.4246 9.83179 45.0999 6.2771 44.4504 1.85083C44.7922 1.57739 45.4417 1.44067 46.3987 1.44067ZM66.0349 0.7229C66.804 0.962158 68.325 2.57715 70.5979 5.56787C70.7517 5.56787 72.7769 7.73828 76.6733 12.0791C76.4683 12.1475 75.6907 13.301 74.3406 15.5398C74.1184 15.5398 72.5461 17.7102 69.6238 22.051C68.9402 22.9739 68.5728 23.4353 68.5215 23.4353H68.3677C68.2993 23.4353 67.9832 23.1106 67.4192 22.4612C67.3167 22.4612 67.2654 22.5125 67.2654 22.615L66.5732 22.4612L65.5991 22.615C65.0864 21.6409 63.7534 19.7952 61.6001 17.0779C60.0278 14.9246 59.2417 13.8137 59.2417 13.7454C59.9253 13.5745 60.4807 12.9763 60.908 11.9509C61.0276 11.3015 61.207 10.9768 61.4463 10.9768C61.4463 11.0623 61.4976 11.105 61.6001 11.105C61.7881 10.8145 61.8821 10.5837 61.8821 10.4128L61.7283 9.59253C62.0017 9.57544 62.4204 8.55859 62.9844 6.54199C64.5566 3.31201 65.5735 1.37231 66.0349 0.7229ZM66.4451 3.77344C63.8645 9.63525 62.3862 13.0959 62.0103 14.1555C62.6938 15.3005 64.4968 17.7444 67.4192 21.4871C67.4192 21.5896 67.3679 21.6409 67.2654 21.6409C67.3679 21.8118 67.4192 21.9485 67.4192 22.051H67.5474C67.5474 21.5725 69.2991 18.9407 72.8025 14.1555C72.8708 13.9333 73.2896 13.2925 74.0586 12.2329C70.3672 7.97754 67.8293 5.15771 66.4451 3.77344ZM67.9575 21.9229V22.1792H68.1113V21.9229H67.9575ZM91.157 0.851074C91.2424 1.02197 91.2852 1.15869 91.2852 1.26123L91.9773 1.13306C93.6692 2.05591 94.8228 2.79077 95.438 3.33765C98.0356 4.55103 100.163 5.70459 101.821 6.79834C101.821 6.88379 101.633 7.16577 101.257 7.64429V7.77246L101.539 7.64429C102.188 8.10571 102.65 8.56714 102.923 9.02856C102.923 9.26782 101.676 9.86597 99.1807 10.823C96.4976 11.9338 95.0706 12.4893 94.8997 12.4893V12.6174L102.513 17.8726C102.735 18.0605 102.915 18.1545 103.052 18.1545V18.5647C102.317 18.804 101.949 19.1714 101.949 19.667H101.539C100.479 18.7954 97.5742 16.719 92.8232 13.4377H92.6694L92.5413 14.4119C92.5413 15.4202 92.8147 17.3599 93.3616 20.231H92.3875C92.0457 19.8379 91.6355 19.6072 91.157 19.5388L91.0032 18.7185H91.157C90.7981 18.7185 90.3794 13.8223 89.9009 4.02979C89.9009 3.02148 89.5334 2.38062 88.7986 2.10718V1.8252C89.3284 1.17578 90.1145 0.851074 91.157 0.851074ZM91.6953 3.61963V3.7478C91.9858 6.12329 92.1738 8.48169 92.2593 10.823C92.4985 10.823 92.7292 10.917 92.9514 11.105H93.0796C93.4214 11.105 95.9165 10.1309 100.565 8.18262V8.05444C98.7192 7.25122 96.1814 5.90967 92.9514 4.02979L91.6953 3.61963ZM112.049 0.7229C112.818 0.962158 114.339 2.57715 116.612 5.56787C116.766 5.56787 118.791 7.73828 122.688 12.0791C122.483 12.1475 121.705 13.301 120.355 15.5398C120.133 15.5398 118.561 17.7102 115.638 22.051C114.955 22.9739 114.587 23.4353 114.536 23.4353H114.382C114.314 23.4353 113.998 23.1106 113.434 22.4612C113.331 22.4612 113.28 22.5125 113.28 22.615L112.588 22.4612L111.614 22.615C111.101 21.6409 109.768 19.7952 107.615 17.0779C106.042 14.9246 105.256 13.8137 105.256 13.7454C105.94 13.5745 106.495 12.9763 106.922 11.9509C107.042 11.3015 107.221 10.9768 107.461 10.9768C107.461 11.0623 107.512 11.105 107.615 11.105C107.802 10.8145 107.896 10.5837 107.896 10.4128L107.743 9.59253C108.016 9.57544 108.435 8.55859 108.999 6.54199C110.571 3.31201 111.588 1.37231 112.049 0.7229ZM112.459 3.77344C109.879 9.63525 108.401 13.0959 108.025 14.1555C108.708 15.3005 110.511 17.7444 113.434 21.4871C113.434 21.5896 113.382 21.6409 113.28 21.6409C113.382 21.8118 113.434 21.9485 113.434 22.051H113.562C113.562 21.5725 115.313 18.9407 118.817 14.1555C118.885 13.9333 119.304 13.2925 120.073 12.2329C116.382 7.97754 113.844 5.15771 112.459 3.77344ZM113.972 21.9229V22.1792H114.126V21.9229H113.972ZM127.661 2.61987C127.849 2.92749 127.943 3.1582 127.943 3.31201C128.114 8.7124 128.199 12.3098 128.199 14.1042L127.943 14.2581H126.405C126.319 10.2249 126.183 6.48218 125.995 3.03003C126.2 2.94458 126.755 2.80786 127.661 2.61987ZM127.097 17.1292H127.507C127.798 17.1292 127.943 17.864 127.943 19.3337V20.718L127.789 21C127.704 21 127.661 20.9573 127.661 20.8718L126.969 21H126.405C126.131 21 125.995 20.4019 125.995 19.2056V17.5393C126.046 17.2659 126.413 17.1292 127.097 17.1292Z"/>
</mask>
<path d="M2.05054 1.44067C2.59741 4.44849 2.87085 7.31104 2.87085 10.0283C5.10962 8.79785 7.83545 7.18286 11.0483 5.18335C11.1851 5.18335 11.3645 5.08936 11.5867 4.90137C12.3215 5.48242 12.689 6.03784 12.689 6.56763C10.1768 7.88354 7.45947 9.54126 4.53711 11.5408C6.82715 14.1042 9.31372 17.0095 11.9968 20.2566V20.4104C11.8088 20.7522 11.3047 21.1196 10.4844 21.5127C7.2373 17.5308 4.74219 14.6255 2.99902 12.7969C2.69141 12.7969 2.37524 13.3523 2.05054 14.4631L2.17871 14.7195C2.09326 15.4714 1.95654 15.8474 1.76855 15.8474C1.76855 16.6335 2.09326 17.3257 2.74268 17.9238V18.7441C2.74268 18.9492 2.69141 19.1372 2.58887 19.3081C2.69141 19.4619 2.74268 19.6414 2.74268 19.8464V20.0002C2.28125 20.4788 2.05054 20.7949 2.05054 20.9487C2.13599 21.1367 2.17871 21.282 2.17871 21.3845H1.07642C0.888428 21.3845 0.794434 21.2905 0.794434 21.1025V20.4104C0.794434 19.8123 0.888428 17.2231 1.07642 12.6431V12.5149C1.07642 9.83179 0.751709 6.2771 0.102295 1.85083C0.444092 1.57739 1.09351 1.44067 2.05054 1.44067ZM21.6868 0.7229C22.4558 0.962158 23.9768 2.57715 26.2498 5.56787C26.4036 5.56787 28.4287 7.73828 32.3252 12.0791C32.1201 12.1475 31.3425 13.301 29.9924 15.5398C29.7703 15.5398 28.198 17.7102 25.2756 22.051C24.592 22.9739 24.2246 23.4353 24.1733 23.4353H24.0195C23.9512 23.4353 23.635 23.1106 23.071 22.4612C22.9685 22.4612 22.9172 22.5125 22.9172 22.615L22.2251 22.4612L21.251 22.615C20.7383 21.6409 19.4053 19.7952 17.252 17.0779C15.6797 14.9246 14.8936 13.8137 14.8936 13.7454C15.5771 13.5745 16.1326 12.9763 16.5598 11.9509C16.6794 11.3015 16.8589 10.9768 17.0981 10.9768C17.0981 11.0623 17.1494 11.105 17.252 11.105C17.4399 10.8145 17.5339 10.5837 17.5339 10.4128L17.3801 9.59253C17.6536 9.57544 18.0723 8.55859 18.6362 6.54199C20.2085 3.31201 21.2253 1.37231 21.6868 0.7229ZM22.0969 3.77344C19.5164 9.63525 18.0381 13.0959 17.6621 14.1555C18.3457 15.3005 20.1487 17.7444 23.071 21.4871C23.071 21.5896 23.0198 21.6409 22.9172 21.6409C23.0198 21.8118 23.071 21.9485 23.071 22.051H23.1992C23.1992 21.5725 24.9509 18.9407 28.4543 14.1555C28.5227 13.9333 28.9414 13.2925 29.7104 12.2329C26.019 7.97754 23.4812 5.15771 22.0969 3.77344ZM23.6094 21.9229V22.1792H23.7632V21.9229H23.6094ZM46.3987 1.44067C46.9456 4.44849 47.219 7.31104 47.219 10.0283C49.4578 8.79785 52.1836 7.18286 55.3965 5.18335C55.5332 5.18335 55.7126 5.08936 55.9348 4.90137C56.6697 5.48242 57.0371 6.03784 57.0371 6.56763C54.5249 7.88354 51.8076 9.54126 48.8853 11.5408C51.1753 14.1042 53.6619 17.0095 56.345 20.2566V20.4104C56.157 20.7522 55.6528 21.1196 54.8325 21.5127C51.5854 17.5308 49.0903 14.6255 47.3472 12.7969C47.0396 12.7969 46.7234 13.3523 46.3987 14.4631L46.5269 14.7195C46.4414 15.4714 46.3047 15.8474 46.1167 15.8474C46.1167 16.6335 46.4414 17.3257 47.0908 17.9238V18.7441C47.0908 18.9492 47.0396 19.1372 46.937 19.3081C47.0396 19.4619 47.0908 19.6414 47.0908 19.8464V20.0002C46.6294 20.4788 46.3987 20.7949 46.3987 20.9487C46.4841 21.1367 46.5269 21.282 46.5269 21.3845H45.4246C45.2366 21.3845 45.1426 21.2905 45.1426 21.1025V20.4104C45.1426 19.8123 45.2366 17.2231 45.4246 12.6431V12.5149C45.4246 9.83179 45.0999 6.2771 44.4504 1.85083C44.7922 1.57739 45.4417 1.44067 46.3987 1.44067ZM66.0349 0.7229C66.804 0.962158 68.325 2.57715 70.5979 5.56787C70.7517 5.56787 72.7769 7.73828 76.6733 12.0791C76.4683 12.1475 75.6907 13.301 74.3406 15.5398C74.1184 15.5398 72.5461 17.7102 69.6238 22.051C68.9402 22.9739 68.5728 23.4353 68.5215 23.4353H68.3677C68.2993 23.4353 67.9832 23.1106 67.4192 22.4612C67.3167 22.4612 67.2654 22.5125 67.2654 22.615L66.5732 22.4612L65.5991 22.615C65.0864 21.6409 63.7534 19.7952 61.6001 17.0779C60.0278 14.9246 59.2417 13.8137 59.2417 13.7454C59.9253 13.5745 60.4807 12.9763 60.908 11.9509C61.0276 11.3015 61.207 10.9768 61.4463 10.9768C61.4463 11.0623 61.4976 11.105 61.6001 11.105C61.7881 10.8145 61.8821 10.5837 61.8821 10.4128L61.7283 9.59253C62.0017 9.57544 62.4204 8.55859 62.9844 6.54199C64.5566 3.31201 65.5735 1.37231 66.0349 0.7229ZM66.4451 3.77344C63.8645 9.63525 62.3862 13.0959 62.0103 14.1555C62.6938 15.3005 64.4968 17.7444 67.4192 21.4871C67.4192 21.5896 67.3679 21.6409 67.2654 21.6409C67.3679 21.8118 67.4192 21.9485 67.4192 22.051H67.5474C67.5474 21.5725 69.2991 18.9407 72.8025 14.1555C72.8708 13.9333 73.2896 13.2925 74.0586 12.2329C70.3672 7.97754 67.8293 5.15771 66.4451 3.77344ZM67.9575 21.9229V22.1792H68.1113V21.9229H67.9575ZM91.157 0.851074C91.2424 1.02197 91.2852 1.15869 91.2852 1.26123L91.9773 1.13306C93.6692 2.05591 94.8228 2.79077 95.438 3.33765C98.0356 4.55103 100.163 5.70459 101.821 6.79834C101.821 6.88379 101.633 7.16577 101.257 7.64429V7.77246L101.539 7.64429C102.188 8.10571 102.65 8.56714 102.923 9.02856C102.923 9.26782 101.676 9.86597 99.1807 10.823C96.4976 11.9338 95.0706 12.4893 94.8997 12.4893V12.6174L102.513 17.8726C102.735 18.0605 102.915 18.1545 103.052 18.1545V18.5647C102.317 18.804 101.949 19.1714 101.949 19.667H101.539C100.479 18.7954 97.5742 16.719 92.8232 13.4377H92.6694L92.5413 14.4119C92.5413 15.4202 92.8147 17.3599 93.3616 20.231H92.3875C92.0457 19.8379 91.6355 19.6072 91.157 19.5388L91.0032 18.7185H91.157C90.7981 18.7185 90.3794 13.8223 89.9009 4.02979C89.9009 3.02148 89.5334 2.38062 88.7986 2.10718V1.8252C89.3284 1.17578 90.1145 0.851074 91.157 0.851074ZM91.6953 3.61963V3.7478C91.9858 6.12329 92.1738 8.48169 92.2593 10.823C92.4985 10.823 92.7292 10.917 92.9514 11.105H93.0796C93.4214 11.105 95.9165 10.1309 100.565 8.18262V8.05444C98.7192 7.25122 96.1814 5.90967 92.9514 4.02979L91.6953 3.61963ZM112.049 0.7229C112.818 0.962158 114.339 2.57715 116.612 5.56787C116.766 5.56787 118.791 7.73828 122.688 12.0791C122.483 12.1475 121.705 13.301 120.355 15.5398C120.133 15.5398 118.561 17.7102 115.638 22.051C114.955 22.9739 114.587 23.4353 114.536 23.4353H114.382C114.314 23.4353 113.998 23.1106 113.434 22.4612C113.331 22.4612 113.28 22.5125 113.28 22.615L112.588 22.4612L111.614 22.615C111.101 21.6409 109.768 19.7952 107.615 17.0779C106.042 14.9246 105.256 13.8137 105.256 13.7454C105.94 13.5745 106.495 12.9763 106.922 11.9509C107.042 11.3015 107.221 10.9768 107.461 10.9768C107.461 11.0623 107.512 11.105 107.615 11.105C107.802 10.8145 107.896 10.5837 107.896 10.4128L107.743 9.59253C108.016 9.57544 108.435 8.55859 108.999 6.54199C110.571 3.31201 111.588 1.37231 112.049 0.7229ZM112.459 3.77344C109.879 9.63525 108.401 13.0959 108.025 14.1555C108.708 15.3005 110.511 17.7444 113.434 21.4871C113.434 21.5896 113.382 21.6409 113.28 21.6409C113.382 21.8118 113.434 21.9485 113.434 22.051H113.562C113.562 21.5725 115.313 18.9407 118.817 14.1555C118.885 13.9333 119.304 13.2925 120.073 12.2329C116.382 7.97754 113.844 5.15771 112.459 3.77344ZM113.972 21.9229V22.1792H114.126V21.9229H113.972ZM127.661 2.61987C127.849 2.92749 127.943 3.1582 127.943 3.31201C128.114 8.7124 128.199 12.3098 128.199 14.1042L127.943 14.2581H126.405C126.319 10.2249 126.183 6.48218 125.995 3.03003C126.2 2.94458 126.755 2.80786 127.661 2.61987ZM127.097 17.1292H127.507C127.798 17.1292 127.943 17.864 127.943 19.3337V20.718L127.789 21C127.704 21 127.661 20.9573 127.661 20.8718L126.969 21H126.405C126.131 21 125.995 20.4019 125.995 19.2056V17.5393C126.046 17.2659 126.413 17.1292 127.097 17.1292Z" fill="#FFF6F6"/>
<path d="M2.05054 1.44067L3.03441 1.26179L2.88511 0.440674H2.05054V1.44067ZM2.87085 10.0283H1.87085V11.719L3.35251 10.9047L2.87085 10.0283ZM11.0483 5.18335V4.18335H10.7626L10.52 4.33434L11.0483 5.18335ZM11.5867 4.90137L12.2069 4.11695L11.5652 3.60957L10.9407 4.13798L11.5867 4.90137ZM12.689 6.56763L13.153 7.45346L13.689 7.1727V6.56763H12.689ZM4.53711 11.5408L3.97243 10.7155L3.03308 11.3582L3.79135 12.207L4.53711 11.5408ZM11.9968 20.2566H12.9968V19.8969L12.7677 19.6196L11.9968 20.2566ZM11.9968 20.4104L12.873 20.8923L12.9968 20.6673V20.4104H11.9968ZM10.4844 21.5127L9.70938 22.1447L10.2068 22.7546L10.9165 22.4145L10.4844 21.5127ZM2.99902 12.7969L3.72284 12.1069L3.42732 11.7969H2.99902V12.7969ZM2.05054 14.4631L1.0907 14.1826L0.980583 14.5593L1.15611 14.9103L2.05054 14.4631ZM2.17871 14.7195L3.17232 14.8324L3.20581 14.5376L3.07314 14.2723L2.17871 14.7195ZM1.76855 15.8474V14.8474H0.768555V15.8474H1.76855ZM2.74268 17.9238H3.74268V17.4853L3.42015 17.1883L2.74268 17.9238ZM2.58887 19.3081L1.73137 18.7936L1.40579 19.3363L1.75682 19.8628L2.58887 19.3081ZM2.74268 20.0002L3.46252 20.6944L3.74268 20.4038V20.0002H2.74268ZM2.05054 20.9487H1.05054V21.1653L1.14017 21.3625L2.05054 20.9487ZM2.17871 21.3845V22.3845H3.17871V21.3845H2.17871ZM1.07642 12.6431L2.07557 12.6841L2.07642 12.6636V12.6431H1.07642ZM0.102295 1.85083L-0.5224 1.06996L-0.970395 1.42836L-0.887113 1.99599L0.102295 1.85083ZM1.06667 1.61956C1.60412 4.57554 1.87085 7.37792 1.87085 10.0283H3.87085C3.87085 7.24415 3.59071 4.32143 3.03441 1.26179L1.06667 1.61956ZM3.35251 10.9047C5.61264 9.66247 8.35503 8.03735 11.5767 6.03236L10.52 4.33434C7.31587 6.32837 4.6066 7.93323 2.38919 9.15196L3.35251 10.9047ZM11.0483 6.18335C11.3375 6.18335 11.5802 6.08734 11.7495 5.99869C11.9255 5.90647 12.0876 5.78745 12.2326 5.66475L10.9407 4.13798C10.904 4.16902 10.875 4.19115 10.8534 4.20632C10.8315 4.22172 10.821 4.22724 10.8215 4.22702C10.822 4.22675 10.8265 4.22442 10.8347 4.22096C10.843 4.21752 10.8561 4.21248 10.8739 4.20719C10.9085 4.19691 10.9686 4.18335 11.0483 4.18335V6.18335ZM10.9664 5.68578C11.6376 6.21644 11.689 6.51365 11.689 6.56763H13.689C13.689 5.56204 13.0055 4.7484 12.2069 4.11695L10.9664 5.68578ZM12.225 5.6818C9.67076 7.01971 6.91957 8.699 3.97243 10.7155L5.10179 12.3661C7.99938 10.3835 10.6828 8.74738 13.153 7.45346L12.225 5.6818ZM3.79135 12.207C6.07118 14.759 8.54929 17.6543 11.226 20.8936L12.7677 19.6196C10.0782 16.3647 7.58311 13.4495 5.28287 10.8746L3.79135 12.207ZM10.9968 20.2566V20.4104H12.9968V20.2566H10.9968ZM11.1206 19.9285C11.1271 19.9166 11.0854 19.9908 10.8887 20.1342C10.7028 20.2697 10.4299 20.4299 10.0523 20.6109L10.9165 22.4145C11.3591 22.2024 11.7485 21.9824 12.0667 21.7505C12.3742 21.5264 12.6785 21.246 12.873 20.8923L11.1206 19.9285ZM11.2594 20.8807C8.00901 16.8948 5.49388 13.9647 3.72284 12.1069L2.27521 13.4869C3.99049 15.2862 6.4656 18.1668 9.70938 22.1447L11.2594 20.8807ZM2.99902 11.7969C2.60091 11.7969 2.29674 11.9805 2.10171 12.1542C1.91134 12.3237 1.76958 12.53 1.66212 12.7187C1.44638 13.0978 1.26033 13.6023 1.0907 14.1826L3.01037 14.7437C3.16545 14.2132 3.29984 13.8845 3.40025 13.7081C3.45087 13.6192 3.46613 13.6172 3.43171 13.6479C3.39262 13.6827 3.24333 13.7969 2.99902 13.7969V11.7969ZM1.15611 14.9103L1.28428 15.1667L3.07314 14.2723L2.94496 14.0159L1.15611 14.9103ZM1.18511 14.6066C1.14488 14.9606 1.09962 15.1485 1.07229 15.2237C1.05742 15.2646 1.07065 15.2072 1.14311 15.1233C1.22769 15.0254 1.43863 14.8474 1.76855 14.8474V16.8474C2.19247 16.8474 2.491 16.6225 2.65676 16.4305C2.81039 16.2526 2.89839 16.0543 2.95188 15.9072C3.06126 15.6064 3.12709 15.2303 3.17232 14.8324L1.18511 14.6066ZM0.768555 15.8474C0.768555 16.949 1.23822 17.8977 2.0652 18.6594L3.42015 17.1883C2.9483 16.7537 2.76855 16.3181 2.76855 15.8474H0.768555ZM1.74268 17.9238V18.7441H3.74268V17.9238H1.74268ZM1.74268 18.7441C1.74268 18.7735 1.73787 18.7828 1.73137 18.7936L3.44636 19.8226C3.64495 19.4916 3.74268 19.1249 3.74268 18.7441H1.74268ZM1.75682 19.8628C1.75388 19.8584 1.75088 19.8531 1.7482 19.8473C1.74553 19.8415 1.74376 19.8365 1.7427 19.8328C1.74043 19.8248 1.74268 19.8277 1.74268 19.8464H3.74268C3.74268 19.4664 3.64479 19.0892 3.42092 18.7534L1.75682 19.8628ZM1.74268 19.8464V20.0002H3.74268V19.8464H1.74268ZM2.02283 19.3061C1.77903 19.5589 1.57019 19.7952 1.41578 20.0068C1.33889 20.1121 1.25975 20.2327 1.19613 20.3623C1.141 20.4746 1.05054 20.6858 1.05054 20.9487H3.05054C3.05054 21.0508 3.03206 21.1274 3.02004 21.1679C3.00751 21.2101 2.99502 21.2364 2.99146 21.2436C2.98552 21.2557 2.99289 21.2384 3.03136 21.1857C3.10766 21.0812 3.2449 20.9201 3.46252 20.6944L2.02283 19.3061ZM1.14017 21.3625C1.15457 21.3942 1.16536 21.4201 1.17327 21.4407C1.18124 21.4614 1.18546 21.4746 1.1873 21.4808C1.18924 21.4874 1.18759 21.4831 1.18524 21.4695C1.18298 21.4564 1.17871 21.4269 1.17871 21.3845H3.17871C3.17871 21.0567 3.05751 20.7475 2.9609 20.5349L1.14017 21.3625ZM2.17871 20.3845H1.07642V22.3845H2.17871V20.3845ZM1.07642 20.3845C1.13657 20.3845 1.36535 20.4002 1.57204 20.6069C1.77872 20.8136 1.79443 21.0424 1.79443 21.1025H-0.205566C-0.205566 21.3507 -0.142854 21.7205 0.157822 22.0211C0.458499 22.3218 0.828277 22.3845 1.07642 22.3845V20.3845ZM1.79443 21.1025V20.4104H-0.205566V21.1025H1.79443ZM1.79443 20.4104C1.79443 19.8389 1.88695 17.2796 2.07557 12.6841L0.0772573 12.6021C-0.110097 17.1667 -0.205566 19.7856 -0.205566 20.4104H1.79443ZM2.07642 12.6431V12.5149H0.076416V12.6431H2.07642ZM2.07642 12.5149C2.07642 9.76186 1.74418 6.15284 1.0917 1.70567L-0.887113 1.99599C-0.240765 6.40136 0.076416 9.90172 0.076416 12.5149H2.07642ZM0.72699 2.6317C0.72444 2.63374 0.743078 2.61841 0.798673 2.5954C0.854082 2.57248 0.936131 2.5461 1.05171 2.52176C1.28619 2.4724 1.6137 2.44067 2.05054 2.44067V0.440674C1.53034 0.440674 1.05463 0.477309 0.639693 0.564663C0.233979 0.650076 -0.182492 0.798035 -0.5224 1.06996L0.72699 2.6317ZM21.6868 0.7229L21.9838 -0.231956L21.2915 -0.44734L20.8716 0.143693L21.6868 0.7229ZM26.2498 5.56787L25.4536 6.17295L25.7537 6.56787H26.2498V5.56787ZM32.3252 12.0791L32.6414 13.0278L34.0878 12.5457L33.0694 11.4111L32.3252 12.0791ZM29.9924 15.5398V16.5398H30.5571L30.8488 16.0562L29.9924 15.5398ZM25.2756 22.051L26.0792 22.6463L26.0926 22.6282L26.1052 22.6095L25.2756 22.051ZM23.071 22.4612L23.8261 21.8055L23.5271 21.4612H23.071V22.4612ZM22.9172 22.615L22.7003 23.5912L23.9172 23.8616V22.615H22.9172ZM22.2251 22.4612L22.442 21.485L22.2567 21.4438L22.0691 21.4734L22.2251 22.4612ZM21.251 22.615L20.3661 23.0807L20.6996 23.7144L21.4069 23.6028L21.251 22.615ZM17.252 17.0779L16.4443 17.6676L16.456 17.6835L16.4682 17.699L17.252 17.0779ZM14.8936 13.7454L14.651 12.7752L13.8936 12.9646V13.7454H14.8936ZM16.5598 11.9509L17.4829 12.3355L17.5239 12.237L17.5433 12.1321L16.5598 11.9509ZM17.0981 10.9768H18.0981V9.97681H17.0981V10.9768ZM17.252 11.105V12.105H17.796L18.0915 11.6482L17.252 11.105ZM17.5339 10.4128H18.5339V10.3199L18.5168 10.2286L17.5339 10.4128ZM17.3801 9.59253L17.3177 8.59448L16.1888 8.66504L16.3973 9.77682L17.3801 9.59253ZM18.6362 6.54199L17.7371 6.10432L17.6975 6.1856L17.6732 6.27267L18.6362 6.54199ZM22.0969 3.77344L22.804 3.06633L21.7706 2.03287L21.1817 3.37052L22.0969 3.77344ZM17.6621 14.1555L16.7197 13.8211L16.5624 14.2643L16.8035 14.6681L17.6621 14.1555ZM23.071 21.4871H24.071V21.1429L23.8592 20.8716L23.071 21.4871ZM22.9172 21.6409V20.6409H21.151L22.0597 22.1554L22.9172 21.6409ZM23.071 22.051H22.071V23.051H23.071V22.051ZM23.1992 22.051V23.051H24.1992V22.051H23.1992ZM28.4543 14.1555L29.2612 14.7463L29.3606 14.6105L29.4101 14.4496L28.4543 14.1555ZM29.7104 12.2329L30.5197 12.8203L30.9863 12.1776L30.4658 11.5776L29.7104 12.2329ZM23.6094 21.9229V20.9229H22.6094V21.9229H23.6094ZM23.6094 22.1792H22.6094V23.1792H23.6094V22.1792ZM23.7632 22.1792V23.1792H24.7632V22.1792H23.7632ZM23.7632 21.9229H24.7632V20.9229H23.7632V21.9229ZM21.3897 1.67776C21.3837 1.6759 21.4153 1.68553 21.49 1.73105C21.562 1.77493 21.6566 1.84141 21.7753 1.93747C22.0139 2.13068 22.3131 2.41357 22.6763 2.79919C23.4018 3.56955 24.326 4.6893 25.4536 6.17295L27.0459 4.96279C25.9005 3.45572 24.9277 2.27261 24.1323 1.42798C23.735 1.00611 23.3677 0.653465 23.0338 0.383116C22.717 0.126573 22.3592 -0.115176 21.9838 -0.231956L21.3897 1.67776ZM26.2498 6.56787C26.0108 6.56787 25.8427 6.4788 25.8217 6.4683C25.7695 6.44215 25.7355 6.41844 25.7272 6.41264C25.7085 6.39952 25.709 6.39807 25.7376 6.42299C25.7903 6.46899 25.8788 6.5524 26.0103 6.68332C26.2694 6.94142 26.6487 7.33765 27.1528 7.87789C28.1586 8.95584 29.6338 10.5778 31.581 12.7471L33.0694 11.4111C31.1201 9.23954 29.6345 7.60593 28.6151 6.51346C28.1066 5.96851 27.7073 5.55083 27.4217 5.26633C27.2808 5.12595 27.1555 5.00588 27.0527 4.91623C27.0036 4.87332 26.9411 4.821 26.8738 4.77397C26.8413 4.75122 26.7867 4.71478 26.7176 4.68016C26.6797 4.66118 26.4983 4.56787 26.2498 4.56787V6.56787ZM32.009 11.1304C31.7478 11.2175 31.5722 11.392 31.5232 11.4398C31.439 11.5219 31.3582 11.6159 31.2848 11.7072C31.1359 11.8923 30.9591 12.1398 30.759 12.4366C30.3559 13.0345 29.8137 13.8997 29.1361 15.0234L30.8488 16.0562C31.5212 14.9411 32.0429 14.1101 32.4174 13.5545C32.6061 13.2745 32.7465 13.0809 32.8433 12.9605C32.8665 12.9317 32.885 12.9098 32.899 12.894C32.9134 12.8776 32.9201 12.8711 32.9197 12.8714C32.9193 12.8719 32.9156 12.8755 32.9088 12.8814C32.9023 12.8871 32.8904 12.8971 32.8736 12.9095C32.8501 12.9268 32.7689 12.9853 32.6414 13.0278L32.009 11.1304ZM29.9924 14.5398C29.6454 14.5398 29.4034 14.7169 29.3648 14.7437C29.2765 14.8049 29.2025 14.8724 29.1498 14.9235C29.0405 15.0295 28.9221 15.1642 28.802 15.3096C28.5569 15.6059 28.2333 16.0335 27.8368 16.5809C27.0403 17.6805 25.9089 19.3198 24.4461 21.4926L26.1052 22.6095C27.5647 20.4415 28.6807 18.8252 29.4564 17.7543C29.846 17.2165 30.1398 16.8302 30.3434 16.5839C30.4475 16.4579 30.5113 16.3892 30.5419 16.3595C30.5591 16.3428 30.5445 16.3594 30.5051 16.3868C30.485 16.4007 30.4392 16.431 30.3723 16.4606C30.3132 16.4868 30.1773 16.5398 29.9924 16.5398V14.5398ZM24.4721 21.4558C24.132 21.9148 23.8776 22.2496 23.7051 22.4663C23.6171 22.5768 23.5609 22.6433 23.5305 22.6768C23.513 22.6961 23.5203 22.6864 23.5445 22.6649C23.555 22.6556 23.5928 22.6225 23.6504 22.5858C23.6798 22.5672 23.7322 22.5361 23.8029 22.5074C23.8666 22.4816 23.9986 22.4353 24.1733 22.4353V24.4353C24.4837 24.4353 24.6983 24.2896 24.7229 24.274C24.7919 24.2301 24.8435 24.1861 24.8702 24.1624C24.9271 24.1121 24.9768 24.0591 25.0116 24.0208C25.0859 23.9389 25.174 23.8323 25.2696 23.7122C25.4645 23.4674 25.7356 23.1101 26.0792 22.6463L24.4721 21.4558ZM24.1733 22.4353H24.0195V24.4353H24.1733V22.4353ZM24.0195 22.4353C24.1975 22.4353 24.329 22.4841 24.3821 22.5058C24.4451 22.5315 24.4898 22.5581 24.511 22.5713C24.553 22.5974 24.5743 22.6166 24.567 22.6104C24.5559 22.6011 24.5188 22.5673 24.4476 22.4942C24.3097 22.3525 24.1045 22.1261 23.8261 21.8055L22.316 23.1169C22.6015 23.4456 22.8364 23.7063 23.0147 23.8894C23.1015 23.9786 23.1915 24.0666 23.2766 24.1385C23.3174 24.1729 23.379 24.2224 23.4535 24.2689C23.491 24.2922 23.5501 24.3264 23.6256 24.3572C23.6911 24.384 23.833 24.4353 24.0195 24.4353V22.4353ZM23.071 21.4612C22.8656 21.4612 22.5279 21.5132 22.2486 21.7925C21.9693 22.0718 21.9172 22.4096 21.9172 22.615H23.9172C23.9172 22.7179 23.8908 22.9787 23.6628 23.2067C23.4347 23.4348 23.1739 23.4612 23.071 23.4612V21.4612ZM23.1342 21.6388L22.442 21.485L22.0082 23.4374L22.7003 23.5912L23.1342 21.6388ZM22.0691 21.4734L21.095 21.6272L21.4069 23.6028L22.3811 23.4489L22.0691 21.4734ZM22.1359 22.1492C21.5721 21.078 20.1771 19.159 18.0357 16.4568L16.4682 17.699C18.6335 20.4314 19.9045 22.2037 20.3661 23.0807L22.1359 22.1492ZM18.0596 16.4882C17.2742 15.4125 16.6881 14.6013 16.2994 14.0521C16.1043 13.7764 15.9634 13.573 15.873 13.4374C15.8268 13.368 15.8007 13.3268 15.7889 13.307C15.7819 13.2954 15.7881 13.3048 15.7991 13.327C15.8042 13.3373 15.8188 13.3672 15.8343 13.4095C15.8392 13.4227 15.8936 13.56 15.8936 13.7454H13.8936C13.8936 13.935 13.9495 14.0786 13.9574 14.1002C13.976 14.1508 13.9952 14.1911 14.0064 14.2137C14.0297 14.2608 14.0543 14.3032 14.0719 14.3327C14.1093 14.3952 14.1569 14.4688 14.2089 14.5468C14.3151 14.706 14.4689 14.9277 14.6669 15.2074C15.0644 15.7691 15.6575 16.5899 16.4443 17.6676L18.0596 16.4882ZM15.1361 14.7155C16.27 14.432 17.0053 13.4817 17.4829 12.3355L15.6367 11.5663C15.2598 12.4709 14.8843 12.7169 14.651 12.7752L15.1361 14.7155ZM17.5433 12.1321C17.5681 11.9972 17.5934 11.8942 17.6167 11.8182C17.6282 11.7808 17.6384 11.7528 17.6464 11.7329C17.6504 11.7231 17.6536 11.7159 17.6559 11.7109C17.6583 11.706 17.6595 11.7038 17.6594 11.704C17.6593 11.7042 17.6575 11.7073 17.6539 11.7129C17.6503 11.7184 17.6443 11.7269 17.6358 11.7377C17.619 11.7586 17.589 11.792 17.5427 11.8279C17.4396 11.9079 17.2842 11.9768 17.0981 11.9768V9.97681C16.44 9.97681 16.0699 10.4453 15.9089 10.7367C15.7414 11.0397 15.643 11.4081 15.5764 11.7698L17.5433 12.1321ZM16.0981 10.9768C16.0981 11.2265 16.1818 11.5789 16.4964 11.8412C16.7761 12.0743 17.0864 12.105 17.252 12.105V10.105C17.3149 10.105 17.5483 10.1143 17.7768 10.3047C18.0402 10.5242 18.0981 10.8126 18.0981 10.9768H16.0981ZM18.0915 11.6482C18.2963 11.3317 18.5339 10.8915 18.5339 10.4128H16.5339C16.5339 10.365 16.5404 10.334 16.5426 10.3243C16.545 10.3144 16.545 10.3179 16.5373 10.3368C16.521 10.3768 16.4845 10.4503 16.4124 10.5617L18.0915 11.6482ZM18.5168 10.2286L18.363 9.40824L16.3973 9.77682L16.5511 10.5971L18.5168 10.2286ZM17.4425 10.5906C17.7785 10.5696 18.0161 10.4056 18.1424 10.2967C18.2749 10.1825 18.3733 10.0534 18.4434 9.94854C18.5847 9.73746 18.71 9.47441 18.8239 9.19783C19.0561 8.63389 19.3143 7.83017 19.5993 6.81132L17.6732 6.27267C17.3941 7.27042 17.161 7.98342 16.9746 8.43633C16.8791 8.66817 16.8132 8.78857 16.7815 8.83597C16.7651 8.8604 16.7815 8.82926 16.8365 8.78185C16.8855 8.73967 17.0501 8.6112 17.3177 8.59448L17.4425 10.5906ZM19.5354 6.97967C21.1241 3.71581 22.1001 1.86768 22.5019 1.30211L20.8716 0.143693C20.3506 0.876944 19.2929 2.90821 17.7371 6.10432L19.5354 6.97967ZM21.1817 3.37052C18.61 9.21219 17.1114 12.7173 16.7197 13.8211L18.6045 14.4899C18.9648 13.4746 20.4227 10.0583 23.0122 4.17636L21.1817 3.37052ZM16.8035 14.6681C17.5257 15.8778 19.3718 18.3743 22.2829 22.1025L23.8592 20.8716C20.9256 17.1145 19.1657 14.7233 18.5207 13.6429L16.8035 14.6681ZM22.071 21.4871C22.071 21.3842 22.0974 21.1234 22.3255 20.8953C22.5535 20.6673 22.8144 20.6409 22.9172 20.6409V22.6409C23.1227 22.6409 23.4604 22.5888 23.7397 22.3095C24.019 22.0302 24.071 21.6925 24.071 21.4871H22.071ZM22.0597 22.1554C22.0903 22.2062 22.098 22.2273 22.0963 22.2227C22.095 22.2193 22.0893 22.2036 22.0836 22.1772C22.078 22.1511 22.071 22.1078 22.071 22.051H24.071C24.071 21.6644 23.8975 21.331 23.7747 21.1264L22.0597 22.1554ZM23.071 23.051H23.1992V21.051H23.071V23.051ZM24.1992 22.051C24.1992 22.2162 24.1463 22.2904 24.1998 22.1662C24.2347 22.0851 24.2978 21.9588 24.399 21.7791C24.6 21.4223 24.9126 20.9228 25.3455 20.2723C26.2088 18.9752 27.5121 17.1353 29.2612 14.7463L27.6475 13.5648C25.8932 15.9609 24.5689 17.8294 23.6805 19.1642C23.2376 19.8297 22.8933 20.3769 22.6563 20.7977C22.5386 21.0067 22.4374 21.202 22.3629 21.3751C22.3069 21.5051 22.1992 21.7662 22.1992 22.051H24.1992ZM29.4101 14.4496C29.3935 14.5037 29.3862 14.501 29.4422 14.4019C29.4884 14.3201 29.5584 14.2059 29.6568 14.0552C29.8531 13.7547 30.1391 13.3447 30.5197 12.8203L28.9011 11.6455C28.5127 12.1807 28.2049 12.6209 27.9825 12.9613C27.8716 13.131 27.776 13.285 27.7004 13.4189C27.6346 13.5355 27.5494 13.6962 27.4986 13.8614L29.4101 14.4496ZM30.4658 11.5776C26.7776 7.3259 24.2173 4.47958 22.804 3.06633L21.3898 4.48054C22.7451 5.83585 25.2605 8.62918 28.9551 12.8882L30.4658 11.5776ZM22.6094 21.9229V22.1792H24.6094V21.9229H22.6094ZM23.6094 23.1792H23.7632V21.1792H23.6094V23.1792ZM24.7632 22.1792V21.9229H22.7632V22.1792H24.7632ZM23.7632 20.9229H23.6094V22.9229H23.7632V20.9229ZM46.3987 1.44067L47.3826 1.26179L47.2333 0.440674H46.3987V1.44067ZM47.219 10.0283H46.219V11.719L47.7007 10.9047L47.219 10.0283ZM55.3965 5.18335V4.18335H55.1107L54.8681 4.33434L55.3965 5.18335ZM55.9348 4.90137L56.555 4.11695L55.9134 3.60957L55.2889 4.13798L55.9348 4.90137ZM57.0371 6.56763L57.5011 7.45346L58.0371 7.1727V6.56763H57.0371ZM48.8853 11.5408L48.3206 10.7155L47.3812 11.3582L48.1395 12.207L48.8853 11.5408ZM56.345 20.2566H57.345V19.8969L57.1158 19.6196L56.345 20.2566ZM56.345 20.4104L57.2212 20.8923L57.345 20.6673V20.4104H56.345ZM54.8325 21.5127L54.0575 22.1447L54.5549 22.7546L55.2646 22.4145L54.8325 21.5127ZM47.3472 12.7969L48.071 12.1069L47.7755 11.7969H47.3472V12.7969ZM46.3987 14.4631L45.4388 14.1826L45.3287 14.5593L45.5043 14.9103L46.3987 14.4631ZM46.5269 14.7195L47.5205 14.8324L47.554 14.5376L47.4213 14.2723L46.5269 14.7195ZM46.1167 15.8474V14.8474H45.1167V15.8474H46.1167ZM47.0908 17.9238H48.0908V17.4853L47.7683 17.1883L47.0908 17.9238ZM46.937 19.3081L46.0795 18.7936L45.7539 19.3363L46.105 19.8628L46.937 19.3081ZM47.0908 20.0002L47.8107 20.6944L48.0908 20.4038V20.0002H47.0908ZM46.3987 20.9487H45.3987V21.1653L45.4883 21.3625L46.3987 20.9487ZM46.5269 21.3845V22.3845H47.5269V21.3845H46.5269ZM45.4246 12.6431L46.4237 12.6841L46.4246 12.6636V12.6431H45.4246ZM44.4504 1.85083L43.8257 1.06996L43.3778 1.42836L43.461 1.99599L44.4504 1.85083ZM45.4148 1.61956C45.9523 4.57554 46.219 7.37792 46.219 10.0283H48.219C48.219 7.24415 47.9389 4.32143 47.3826 1.26179L45.4148 1.61956ZM47.7007 10.9047C49.9608 9.66247 52.7032 8.03735 55.9249 6.03236L54.8681 4.33434C51.664 6.32837 48.9547 7.93323 46.7373 9.15196L47.7007 10.9047ZM55.3965 6.18335C55.6856 6.18335 55.9284 6.08734 56.0976 5.99869C56.2737 5.90647 56.4358 5.78745 56.5808 5.66475L55.2889 4.13798C55.2522 4.16902 55.2232 4.19115 55.2016 4.20632C55.1796 4.22172 55.1692 4.22724 55.1696 4.22702C55.1701 4.22675 55.1746 4.22442 55.1829 4.22096C55.1911 4.21752 55.2043 4.21248 55.2221 4.20719C55.2566 4.19691 55.3167 4.18335 55.3965 4.18335V6.18335ZM55.3146 5.68578C55.9857 6.21644 56.0371 6.51365 56.0371 6.56763H58.0371C58.0371 5.56204 57.3536 4.7484 56.555 4.11695L55.3146 5.68578ZM56.5731 5.6818C54.0189 7.01971 51.2677 8.699 48.3206 10.7155L49.4499 12.3661C52.3475 10.3835 55.0309 8.74738 57.5011 7.45346L56.5731 5.6818ZM48.1395 12.207C50.4193 14.759 52.8974 17.6543 55.5741 20.8936L57.1158 19.6196C54.4263 16.3647 51.9313 13.4495 49.631 10.8746L48.1395 12.207ZM55.345 20.2566V20.4104H57.345V20.2566H55.345ZM55.4688 19.9285C55.4753 19.9166 55.4336 19.9908 55.2369 20.1342C55.0509 20.2697 54.7781 20.4299 54.4004 20.6109L55.2646 22.4145C55.7073 22.2024 56.0967 21.9824 56.4149 21.7505C56.7223 21.5264 57.0267 21.246 57.2212 20.8923L55.4688 19.9285ZM55.6075 20.8807C52.3572 16.8948 49.842 13.9647 48.071 12.1069L46.6234 13.4869C48.3386 15.2862 50.8137 18.1668 54.0575 22.1447L55.6075 20.8807ZM47.3472 11.7969C46.9491 11.7969 46.6449 11.9805 46.4499 12.1542C46.2595 12.3237 46.1177 12.53 46.0103 12.7187C45.7945 13.0978 45.6085 13.6023 45.4388 14.1826L47.3585 14.7437C47.5136 14.2132 47.648 13.8845 47.7484 13.7081C47.799 13.6192 47.8143 13.6172 47.7799 13.6479C47.7408 13.6827 47.5915 13.7969 47.3472 13.7969V11.7969ZM45.5043 14.9103L45.6324 15.1667L47.4213 14.2723L47.2931 14.0159L45.5043 14.9103ZM45.5332 14.6066C45.493 14.9606 45.4478 15.1485 45.4204 15.2237C45.4056 15.2646 45.4188 15.2072 45.4913 15.1233C45.5758 15.0254 45.7868 14.8474 46.1167 14.8474V16.8474C46.5406 16.8474 46.8391 16.6225 47.0049 16.4305C47.1585 16.2526 47.2465 16.0543 47.3 15.9072C47.4094 15.6064 47.4752 15.2303 47.5205 14.8324L45.5332 14.6066ZM45.1167 15.8474C45.1167 16.949 45.5864 17.8977 46.4133 18.6594L47.7683 17.1883C47.2964 16.7537 47.1167 16.3181 47.1167 15.8474H45.1167ZM46.0908 17.9238V18.7441H48.0908V17.9238H46.0908ZM46.0908 18.7441C46.0908 18.7735 46.086 18.7828 46.0795 18.7936L47.7945 19.8226C47.9931 19.4916 48.0908 19.1249 48.0908 18.7441H46.0908ZM46.105 19.8628C46.102 19.8584 46.099 19.8531 46.0963 19.8473C46.0937 19.8415 46.0919 19.8365 46.0908 19.8328C46.0886 19.8248 46.0908 19.8277 46.0908 19.8464H48.0908C48.0908 19.4664 47.9929 19.0892 47.7691 18.7534L46.105 19.8628ZM46.0908 19.8464V20.0002H48.0908V19.8464H46.0908ZM46.371 19.3061C46.1272 19.5589 45.9183 19.7952 45.7639 20.0068C45.687 20.1121 45.6079 20.2327 45.5443 20.3623C45.4891 20.4746 45.3987 20.6858 45.3987 20.9487H47.3987C47.3987 21.0508 47.3802 21.1274 47.3682 21.1679C47.3557 21.2101 47.3432 21.2364 47.3396 21.2436C47.3337 21.2557 47.341 21.2384 47.3795 21.1857C47.4558 21.0812 47.593 20.9201 47.8107 20.6944L46.371 19.3061ZM45.4883 21.3625C45.5027 21.3942 45.5135 21.4201 45.5214 21.4407C45.5294 21.4614 45.5336 21.4746 45.5354 21.4808C45.5374 21.4874 45.5357 21.4831 45.5334 21.4695C45.5311 21.4564 45.5269 21.4269 45.5269 21.3845H47.5269C47.5269 21.0567 47.4057 20.7475 47.309 20.5349L45.4883 21.3625ZM46.5269 20.3845H45.4246V22.3845H46.5269V20.3845ZM45.4246 20.3845C45.4847 20.3845 45.7135 20.4002 45.9202 20.6069C46.1269 20.8136 46.1426 21.0424 46.1426 21.1025H44.1426C44.1426 21.3507 44.2053 21.7205 44.506 22.0211C44.8066 22.3218 45.1764 22.3845 45.4246 22.3845V20.3845ZM46.1426 21.1025V20.4104H44.1426V21.1025H46.1426ZM46.1426 20.4104C46.1426 19.8389 46.2351 17.2796 46.4237 12.6841L44.4254 12.6021C44.238 17.1667 44.1426 19.7856 44.1426 20.4104H46.1426ZM46.4246 12.6431V12.5149H44.4246V12.6431H46.4246ZM46.4246 12.5149C46.4246 9.76186 46.0923 6.15284 45.4398 1.70567L43.461 1.99599C44.1074 6.40136 44.4246 9.90172 44.4246 12.5149H46.4246ZM45.0751 2.6317C45.0726 2.63374 45.0912 2.61841 45.1468 2.5954C45.2022 2.57248 45.2843 2.5461 45.3999 2.52176C45.6343 2.4724 45.9618 2.44067 46.3987 2.44067V0.440674C45.8785 0.440674 45.4028 0.477309 44.9878 0.564663C44.5821 0.650076 44.1657 0.798035 43.8257 1.06996L45.0751 2.6317ZM66.0349 0.7229L66.332 -0.231956L65.6397 -0.44734L65.2197 0.143693L66.0349 0.7229ZM70.5979 5.56787L69.8017 6.17295L70.1019 6.56787H70.5979V5.56787ZM76.6733 12.0791L76.9896 13.0278L78.4359 12.5457L77.4175 11.4111L76.6733 12.0791ZM74.3406 15.5398V16.5398H74.9053L75.1969 16.0562L74.3406 15.5398ZM69.6238 22.051L70.4273 22.6463L70.4407 22.6282L70.4533 22.6095L69.6238 22.051ZM67.4192 22.4612L68.1742 21.8055L67.8752 21.4612H67.4192V22.4612ZM67.2654 22.615L67.0484 23.5912L68.2654 23.8616V22.615H67.2654ZM66.5732 22.4612L66.7902 21.485L66.6048 21.4438L66.4173 21.4734L66.5732 22.4612ZM65.5991 22.615L64.7142 23.0807L65.0477 23.7144L65.7551 23.6028L65.5991 22.615ZM61.6001 17.0779L60.7925 17.6676L60.8041 17.6835L60.8164 17.699L61.6001 17.0779ZM59.2417 13.7454L58.9992 12.7752L58.2417 12.9646V13.7454H59.2417ZM60.908 11.9509L61.831 12.3355L61.8721 12.237L61.8914 12.1321L60.908 11.9509ZM61.4463 10.9768H62.4463V9.97681H61.4463V10.9768ZM61.6001 11.105V12.105H62.1441L62.4397 11.6482L61.6001 11.105ZM61.8821 10.4128H62.8821V10.3199L62.865 10.2286L61.8821 10.4128ZM61.7283 9.59253L61.6659 8.59448L60.5369 8.66504L60.7454 9.77682L61.7283 9.59253ZM62.9844 6.54199L62.0852 6.10432L62.0457 6.1856L62.0213 6.27267L62.9844 6.54199ZM66.4451 3.77344L67.1522 3.06633L66.1187 2.03287L65.5298 3.37052L66.4451 3.77344ZM62.0103 14.1555L61.0678 13.8211L60.9106 14.2643L61.1516 14.6681L62.0103 14.1555ZM67.4192 21.4871H68.4192V21.1429L68.2074 20.8716L67.4192 21.4871ZM67.2654 21.6409V20.6409H65.4992L66.4079 22.1554L67.2654 21.6409ZM67.4192 22.051H66.4192V23.051H67.4192V22.051ZM67.5474 22.051V23.051H68.5474V22.051H67.5474ZM72.8025 14.1555L73.6094 14.7463L73.7088 14.6105L73.7583 14.4496L72.8025 14.1555ZM74.0586 12.2329L74.8679 12.8203L75.3344 12.1776L74.814 11.5776L74.0586 12.2329ZM67.9575 21.9229V20.9229H66.9575V21.9229H67.9575ZM67.9575 22.1792H66.9575V23.1792H67.9575V22.1792ZM68.1113 22.1792V23.1792H69.1113V22.1792H68.1113ZM68.1113 21.9229H69.1113V20.9229H68.1113V21.9229ZM65.7378 1.67776C65.7319 1.6759 65.7635 1.68553 65.8382 1.73105C65.9102 1.77493 66.0048 1.84141 66.1234 1.93747C66.362 2.13068 66.6613 2.41357 67.0245 2.79919C67.75 3.56955 68.6742 4.6893 69.8017 6.17295L71.3941 4.96279C70.2487 3.45572 69.2759 2.27261 68.4804 1.42798C68.0831 1.00611 67.7159 0.653465 67.382 0.383116C67.0651 0.126573 66.7073 -0.115176 66.332 -0.231956L65.7378 1.67776ZM70.5979 6.56787C70.3589 6.56787 70.1908 6.4788 70.1699 6.4683C70.1177 6.44215 70.0836 6.41844 70.0754 6.41264C70.0566 6.39952 70.0572 6.39807 70.0857 6.42299C70.1384 6.46899 70.227 6.5524 70.3584 6.68332C70.6175 6.94142 70.9969 7.33765 71.501 7.87789C72.5068 8.95584 73.982 10.5778 75.9292 12.7471L77.4175 11.4111C75.4682 9.23954 73.9826 7.60593 72.9633 6.51346C72.4548 5.96851 72.0555 5.55083 71.7699 5.26633C71.6289 5.12595 71.5036 5.00588 71.4009 4.91623C71.3517 4.87332 71.2892 4.821 71.222 4.77397C71.1895 4.75122 71.1348 4.71478 71.0657 4.68016C71.0278 4.66118 70.8465 4.56787 70.5979 4.56787V6.56787ZM76.3571 11.1304C76.096 11.2175 75.9203 11.392 75.8713 11.4398C75.7871 11.5219 75.7063 11.6159 75.6329 11.7072C75.484 11.8923 75.3072 12.1398 75.1071 12.4366C74.7041 13.0345 74.1619 13.8997 73.4842 15.0234L75.1969 16.0562C75.8694 14.9411 76.391 14.1101 76.7655 13.5545C76.9542 13.2745 77.0947 13.0809 77.1915 12.9605C77.2147 12.9317 77.2331 12.9098 77.2471 12.894C77.2616 12.8776 77.2682 12.8711 77.2679 12.8714C77.2674 12.8719 77.2637 12.8755 77.257 12.8814C77.2504 12.8871 77.2385 12.8971 77.2217 12.9095C77.1982 12.9268 77.117 12.9853 76.9896 13.0278L76.3571 11.1304ZM74.3406 14.5398C73.9936 14.5398 73.7516 14.7169 73.713 14.7437C73.6247 14.8049 73.5507 14.8724 73.4979 14.9235C73.3886 15.0295 73.2702 15.1642 73.1501 15.3096C72.9051 15.6059 72.5815 16.0335 72.1849 16.5809C71.3884 17.6805 70.257 19.3198 68.7943 21.4926L70.4533 22.6095C71.9129 20.4415 73.0288 18.8252 73.8046 17.7543C74.1942 17.2165 74.4879 16.8302 74.6915 16.5839C74.7957 16.4579 74.8594 16.3892 74.89 16.3595C74.9072 16.3428 74.8926 16.3594 74.8532 16.3868C74.8331 16.4007 74.7873 16.431 74.7205 16.4606C74.6614 16.4868 74.5255 16.5398 74.3406 16.5398V14.5398ZM68.8202 21.4558C68.4802 21.9148 68.2258 22.2496 68.0532 22.4663C67.9652 22.5768 67.909 22.6433 67.8787 22.6768C67.8611 22.6961 67.8684 22.6864 67.8927 22.6649C67.9032 22.6556 67.9409 22.6225 67.9986 22.5858C68.0279 22.5672 68.0803 22.5361 68.151 22.5074C68.2147 22.4816 68.3467 22.4353 68.5215 22.4353V24.4353C68.8318 24.4353 69.0464 24.2896 69.071 24.274C69.14 24.2301 69.1916 24.1861 69.2184 24.1624C69.2752 24.1121 69.325 24.0591 69.3598 24.0208C69.4341 23.9389 69.5221 23.8323 69.6178 23.7122C69.8127 23.4674 70.0838 23.1101 70.4273 22.6463L68.8202 21.4558ZM68.5215 22.4353H68.3677V24.4353H68.5215V22.4353ZM68.3677 22.4353C68.5457 22.4353 68.6771 22.4841 68.7302 22.5058C68.7932 22.5315 68.838 22.5581 68.8592 22.5713C68.9011 22.5974 68.9224 22.6166 68.9151 22.6104C68.9041 22.6011 68.867 22.5673 68.7958 22.4942C68.6579 22.3525 68.4527 22.1261 68.1742 21.8055L66.6642 23.1169C66.9497 23.4456 67.1845 23.7063 67.3628 23.8894C67.4497 23.9786 67.5397 24.0666 67.6248 24.1385C67.6655 24.1729 67.7272 24.2224 67.8017 24.2689C67.8391 24.2922 67.8983 24.3264 67.9737 24.3572C68.0392 24.384 68.1811 24.4353 68.3677 24.4353V22.4353ZM67.4192 21.4612C67.2138 21.4612 66.876 21.5132 66.5967 21.7925C66.3174 22.0718 66.2654 22.4096 66.2654 22.615H68.2654C68.2654 22.7179 68.239 22.9787 68.0109 23.2067C67.7829 23.4348 67.5221 23.4612 67.4192 23.4612V21.4612ZM67.4823 21.6388L66.7902 21.485L66.3563 23.4374L67.0484 23.5912L67.4823 21.6388ZM66.4173 21.4734L65.4432 21.6272L65.7551 23.6028L66.7292 23.4489L66.4173 21.4734ZM66.484 22.1492C65.9202 21.078 64.5252 19.159 62.3838 16.4568L60.8164 17.699C62.9816 20.4314 64.2526 22.2037 64.7142 23.0807L66.484 22.1492ZM62.4077 16.4882C61.6223 15.4125 61.0362 14.6013 60.6476 14.0521C60.4525 13.7764 60.3115 13.573 60.2211 13.4374C60.1749 13.368 60.1488 13.3268 60.137 13.307C60.1301 13.2954 60.1363 13.3048 60.1473 13.327C60.1523 13.3373 60.1669 13.3672 60.1825 13.4095C60.1873 13.4227 60.2417 13.56 60.2417 13.7454H58.2417C58.2417 13.935 58.2976 14.0786 58.3055 14.1002C58.3241 14.1508 58.3434 14.1911 58.3546 14.2137C58.3778 14.2608 58.4025 14.3032 58.4201 14.3327C58.4574 14.3952 58.505 14.4688 58.557 14.5468C58.6632 14.706 58.817 14.9277 59.015 15.2074C59.4125 15.7691 60.0056 16.5899 60.7925 17.6676L62.4077 16.4882ZM59.4842 14.7155C60.6181 14.432 61.3535 13.4817 61.831 12.3355L59.9849 11.5663C59.608 12.4709 59.2325 12.7169 58.9992 12.7752L59.4842 14.7155ZM61.8914 12.1321C61.9163 11.9972 61.9415 11.8942 61.9649 11.8182C61.9764 11.7808 61.9865 11.7528 61.9946 11.7329C61.9985 11.7231 62.0018 11.7159 62.0041 11.7109C62.0064 11.706 62.0076 11.7038 62.0075 11.704C62.0074 11.7042 62.0057 11.7073 62.002 11.7129C61.9984 11.7184 61.9925 11.7269 61.9839 11.7377C61.9672 11.7586 61.9372 11.792 61.8909 11.8279C61.7878 11.9079 61.6323 11.9768 61.4463 11.9768V9.97681C60.7882 9.97681 60.418 10.4453 60.257 10.7367C60.0895 11.0397 59.9911 11.4081 59.9245 11.7698L61.8914 12.1321ZM60.4463 10.9768C60.4463 11.2265 60.5299 11.5789 60.8446 11.8412C61.1243 12.0743 61.4346 12.105 61.6001 12.105V10.105C61.6631 10.105 61.8965 10.1143 62.1249 10.3047C62.3883 10.5242 62.4463 10.8126 62.4463 10.9768H60.4463ZM62.4397 11.6482C62.6445 11.3317 62.8821 10.8915 62.8821 10.4128H60.8821C60.8821 10.365 60.8885 10.334 60.8908 10.3243C60.8931 10.3144 60.8932 10.3179 60.8855 10.3368C60.8692 10.3768 60.8326 10.4503 60.7605 10.5617L62.4397 11.6482ZM62.865 10.2286L62.7111 9.40824L60.7454 9.77682L60.8992 10.5971L62.865 10.2286ZM61.7906 10.5906C62.1266 10.5696 62.3642 10.4056 62.4906 10.2967C62.623 10.1825 62.7214 10.0534 62.7916 9.94854C62.9329 9.73746 63.0582 9.47441 63.1721 9.19783C63.4043 8.63389 63.6625 7.83017 63.9474 6.81132L62.0213 6.27267C61.7423 7.27042 61.5092 7.98342 61.3227 8.43633C61.2272 8.66817 61.1613 8.78857 61.1296 8.83597C61.1132 8.8604 61.1297 8.82926 61.1847 8.78185C61.2336 8.73967 61.3983 8.6112 61.6659 8.59448L61.7906 10.5906ZM63.8835 6.97967C65.4723 3.71581 66.4482 1.86768 66.8501 1.30211L65.2197 0.143693C64.6987 0.876944 63.641 2.90821 62.0852 6.10432L63.8835 6.97967ZM65.5298 3.37052C62.9581 9.21219 61.4595 12.7173 61.0678 13.8211L62.9527 14.4899C63.313 13.4746 64.7709 10.0583 67.3603 4.17636L65.5298 3.37052ZM61.1516 14.6681C61.8738 15.8778 63.7199 18.3743 66.631 22.1025L68.2074 20.8716C65.2737 17.1145 63.5139 14.7233 62.8689 13.6429L61.1516 14.6681ZM66.4192 21.4871C66.4192 21.3842 66.4456 21.1234 66.6736 20.8953C66.9017 20.6673 67.1625 20.6409 67.2654 20.6409V22.6409C67.4708 22.6409 67.8085 22.5888 68.0878 22.3095C68.3672 22.0302 68.4192 21.6925 68.4192 21.4871H66.4192ZM66.4079 22.1554C66.4384 22.2062 66.4461 22.2273 66.4444 22.2227C66.4431 22.2193 66.4374 22.2036 66.4318 22.1772C66.4262 22.1511 66.4192 22.1078 66.4192 22.051H68.4192C68.4192 21.6644 68.2456 21.331 68.1229 21.1264L66.4079 22.1554ZM67.4192 23.051H67.5474V21.051H67.4192V23.051ZM68.5474 22.051C68.5474 22.2162 68.4944 22.2904 68.5479 22.1662C68.5828 22.0851 68.6459 21.9588 68.7471 21.7791C68.9481 21.4223 69.2607 20.9228 69.6936 20.2723C70.5569 18.9752 71.8603 17.1353 73.6094 14.7463L71.9956 13.5648C70.2413 15.9609 68.9171 17.8294 68.0287 19.1642C67.5857 19.8297 67.2414 20.3769 67.0045 20.7977C66.8867 21.0067 66.7856 21.202 66.711 21.3751C66.655 21.5051 66.5474 21.7662 66.5474 22.051H68.5474ZM73.7583 14.4496C73.7416 14.5037 73.7344 14.501 73.7903 14.4019C73.8365 14.3201 73.9065 14.2059 74.005 14.0552C74.2013 13.7547 74.4873 13.3447 74.8679 12.8203L73.2493 11.6455C72.8609 12.1807 72.553 12.6209 72.3306 12.9613C72.2197 13.131 72.1242 13.285 72.0486 13.4189C71.9827 13.5355 71.8975 13.6962 71.8467 13.8614L73.7583 14.4496ZM74.814 11.5776C71.1257 7.3259 68.5654 4.47958 67.1522 3.06633L65.738 4.48054C67.0933 5.83585 69.6086 8.62918 73.3032 12.8882L74.814 11.5776ZM66.9575 21.9229V22.1792H68.9575V21.9229H66.9575ZM67.9575 23.1792H68.1113V21.1792H67.9575V23.1792ZM69.1113 22.1792V21.9229H67.1113V22.1792H69.1113ZM68.1113 20.9229H67.9575V22.9229H68.1113V20.9229ZM91.157 0.851074L92.0514 0.403861L91.775 -0.148926H91.157V0.851074ZM91.2852 1.26123H90.2852V2.46342L91.4672 2.24451L91.2852 1.26123ZM91.9773 1.13306L92.4561 0.255161L92.1444 0.0851111L91.7952 0.149775L91.9773 1.13306ZM95.438 3.33765L94.7736 4.08506L94.8826 4.18195L95.0148 4.24368L95.438 3.33765ZM101.821 6.79834H102.821V6.26008L102.372 5.96365L101.821 6.79834ZM101.257 7.64429L100.471 7.02647L100.257 7.29842V7.64429H101.257ZM101.257 7.77246H100.257V9.32547L101.671 8.68283L101.257 7.77246ZM101.539 7.64429L102.118 6.82911L101.649 6.49579L101.125 6.73392L101.539 7.64429ZM102.923 9.02856H103.923V8.75452L103.784 8.51876L102.923 9.02856ZM99.1807 10.823L98.8225 9.88932L98.8103 9.89403L98.7981 9.89905L99.1807 10.823ZM94.8997 12.4893V11.4893H93.8997V12.4893H94.8997ZM94.8997 12.6174H93.8997V13.1423L94.3316 13.4404L94.8997 12.6174ZM102.513 17.8726L103.159 17.1092L103.122 17.0775L103.081 17.0496L102.513 17.8726ZM103.052 18.1545H104.052V17.1545H103.052V18.1545ZM103.052 18.5647L103.361 19.5156L104.052 19.2908V18.5647H103.052ZM101.949 19.667V20.667H102.949V19.667H101.949ZM101.539 19.667L100.904 20.4393L101.181 20.667H101.539V19.667ZM92.8232 13.4377L93.3915 12.6149L93.135 12.4377H92.8232V13.4377ZM92.6694 13.4377V12.4377H91.7924L91.678 13.3073L92.6694 13.4377ZM92.5413 14.4119L91.5498 14.2814L91.5413 14.3464V14.4119H92.5413ZM93.3616 20.231V21.231H94.57L94.3439 20.0438L93.3616 20.231ZM92.3875 20.231L91.6328 20.8871L91.9318 21.231H92.3875V20.231ZM91.157 19.5388L90.1741 19.7231L90.3062 20.4274L91.0156 20.5288L91.157 19.5388ZM91.0032 18.7185V17.7185H89.7982L90.0203 18.9028L91.0032 18.7185ZM89.9009 4.02979H88.9009V4.0542L88.9021 4.07859L89.9009 4.02979ZM88.7986 2.10718H87.7986V2.80207L88.4499 3.0444L88.7986 2.10718ZM88.7986 1.8252L88.0237 1.19307L87.7986 1.46904V1.8252H88.7986ZM91.6953 3.61963L92.0057 2.66902L90.6953 2.24114V3.61963H91.6953ZM91.6953 3.7478H90.6953V3.80873L90.7027 3.8692L91.6953 3.7478ZM92.2593 10.823L91.2599 10.8595L91.2951 11.823H92.2593V10.823ZM92.9514 11.105L92.3055 11.8684L92.5851 12.105H92.9514V11.105ZM100.565 8.18262L100.951 9.10489L101.565 8.84778V8.18262H100.565ZM100.565 8.05444H101.565V7.39904L100.964 7.13751L100.565 8.05444ZM92.9514 4.02979L93.4544 3.16551L93.3627 3.11212L93.2618 3.07918L92.9514 4.02979ZM90.2626 1.29829C90.2751 1.32339 90.284 1.34299 90.29 1.35745C90.2961 1.37206 90.2984 1.37938 90.2986 1.38006C90.2989 1.38096 90.2959 1.37175 90.2927 1.35371C90.2895 1.3359 90.2852 1.30416 90.2852 1.26123H92.2852C92.2852 0.920822 92.1562 0.613513 92.0514 0.403861L90.2626 1.29829ZM91.4672 2.24451L92.1594 2.11634L91.7952 0.149775L91.1031 0.277948L91.4672 2.24451ZM91.4984 2.01095C93.1885 2.9328 94.2518 3.62119 94.7736 4.08506L96.1023 2.59024C95.3937 1.96035 94.1499 1.17902 92.4561 0.255161L91.4984 2.01095ZM95.0148 4.24368C97.5858 5.44462 99.6668 6.57504 101.27 7.63303L102.372 5.96365C100.66 4.83414 98.4855 3.65743 95.8612 2.43162L95.0148 4.24368ZM100.821 6.79834C100.821 6.71545 100.832 6.64936 100.841 6.60778C100.85 6.56462 100.861 6.53113 100.868 6.50991C100.882 6.46925 100.895 6.4452 100.896 6.4438C100.897 6.44094 100.885 6.4632 100.848 6.51921C100.775 6.62801 100.653 6.79434 100.471 7.02647L102.043 8.26211C102.237 8.01572 102.397 7.8018 102.512 7.62861C102.569 7.54364 102.628 7.44947 102.676 7.35475C102.7 7.30742 102.73 7.24359 102.756 7.16928C102.778 7.10744 102.821 6.97148 102.821 6.79834H100.821ZM100.257 7.64429V7.77246H102.257V7.64429H100.257ZM101.671 8.68283L101.953 8.55465L101.125 6.73392L100.843 6.86209L101.671 8.68283ZM100.96 8.45947C101.546 8.87574 101.887 9.24107 102.063 9.53837L103.784 8.51876C103.413 7.89321 102.831 7.33568 102.118 6.82911L100.96 8.45947ZM101.923 9.02856C101.923 8.82619 101.988 8.67611 102.032 8.59647C102.076 8.51592 102.121 8.46607 102.139 8.4471C102.173 8.41134 102.183 8.41071 102.132 8.445C102.036 8.50934 101.853 8.61196 101.555 8.7549C100.969 9.03609 100.063 9.41334 98.8225 9.88932L99.5388 11.7567C100.793 11.2756 101.759 10.8753 102.42 10.5583C102.746 10.4022 103.031 10.2506 103.247 10.1056C103.352 10.0352 103.479 9.94112 103.591 9.82312C103.666 9.74323 103.923 9.46298 103.923 9.02856H101.923ZM98.7981 9.89905C97.4585 10.4537 96.4388 10.867 95.7354 11.1408C95.3825 11.2781 95.1175 11.3771 94.935 11.4406C94.8427 11.4726 94.7822 11.4919 94.7473 11.5019C94.6647 11.5255 94.7578 11.4893 94.8997 11.4893V13.4893C95.0843 13.4893 95.2594 13.4356 95.2979 13.4246C95.3842 13.3999 95.4843 13.367 95.5917 13.3297C95.8086 13.2543 96.1002 13.145 96.4608 13.0046C97.1844 12.723 98.2198 12.3031 99.5632 11.7469L98.7981 9.89905ZM93.8997 12.4893V12.6174H95.8997V12.4893H93.8997ZM94.3316 13.4404L101.945 18.6955L103.081 17.0496L95.4677 11.7944L94.3316 13.4404ZM101.867 18.6359C102.012 18.7586 102.174 18.8777 102.35 18.9699C102.52 19.0585 102.762 19.1545 103.052 19.1545V17.1545C103.131 17.1545 103.191 17.1681 103.226 17.1784C103.244 17.1837 103.257 17.1887 103.265 17.1922C103.273 17.1956 103.278 17.1979 103.278 17.1982C103.279 17.1984 103.268 17.1929 103.246 17.1775C103.225 17.1623 103.196 17.1402 103.159 17.1092L101.867 18.6359ZM102.052 18.1545V18.5647H104.052V18.1545H102.052ZM102.742 17.6138C102.292 17.7604 101.854 17.9764 101.518 18.3126C101.157 18.6737 100.949 19.14 100.949 19.667H102.949C102.949 19.6669 102.949 19.6683 102.949 19.6709C102.949 19.6735 102.948 19.6771 102.947 19.6815C102.946 19.6908 102.942 19.701 102.938 19.711C102.929 19.733 102.921 19.7379 102.932 19.7268C102.963 19.6956 103.076 19.6083 103.361 19.5156L102.742 17.6138ZM101.949 18.667H101.539V20.667H101.949V18.667ZM102.174 18.8947C101.075 17.9902 98.1284 15.8864 93.3915 12.6149L92.255 14.2606C97.0201 17.5516 99.8843 19.6006 100.904 20.4393L102.174 18.8947ZM92.8232 12.4377H92.6694V14.4377H92.8232V12.4377ZM91.678 13.3073L91.5498 14.2814L93.5327 14.5423L93.6609 13.5682L91.678 13.3073ZM91.5413 14.4119C91.5413 15.5295 91.8349 17.5604 92.3792 20.4181L94.3439 20.0438C93.7945 17.1593 93.5413 15.3108 93.5413 14.4119H91.5413ZM93.3616 19.231H92.3875V21.231H93.3616V19.231ZM93.1421 19.5748C92.6558 19.0156 92.034 18.654 91.2984 18.5489L91.0156 20.5288C91.237 20.5604 91.4355 20.6602 91.6328 20.8871L93.1421 19.5748ZM92.1399 19.3545L91.986 18.5342L90.0203 18.9028L90.1741 19.7231L92.1399 19.3545ZM91.0032 19.7185H91.157V17.7185H91.0032V19.7185ZM91.157 17.7185C91.4487 17.7185 91.6578 17.8468 91.7681 17.9399C91.8723 18.0278 91.9274 18.1147 91.947 18.1475C91.9863 18.2131 91.9912 18.2467 91.976 18.1969C91.9501 18.112 91.9109 17.9378 91.8642 17.6436C91.7729 17.0684 91.6744 16.1796 91.5702 14.9611C91.3624 12.5318 91.1388 8.87449 90.8997 3.98098L88.9021 4.07859C89.1415 8.97756 89.3665 12.6646 89.5774 15.1315C89.6826 16.3612 89.7859 17.3084 89.889 17.9573C89.9395 18.2751 89.9957 18.5599 90.0632 18.7811C90.0947 18.8843 90.1459 19.0326 90.231 19.1747C90.2735 19.2458 90.3514 19.3614 90.4782 19.4684C90.6112 19.5806 90.8428 19.7185 91.157 19.7185V17.7185ZM90.9009 4.02979C90.9009 3.41215 90.7894 2.81272 90.4928 2.29552C90.1854 1.75931 89.7192 1.38276 89.1473 1.16996L88.4499 3.0444C88.6128 3.10503 88.6978 3.18563 88.7578 3.29029C88.8287 3.41397 88.9009 3.63912 88.9009 4.02979H90.9009ZM89.7986 2.10718V1.8252H87.7986V2.10718H89.7986ZM89.5734 2.45732C89.8679 2.09644 90.3348 1.85107 91.157 1.85107V-0.148926C89.8942 -0.148926 88.7889 0.255126 88.0237 1.19307L89.5734 2.45732ZM90.6953 3.61963V3.7478H92.6953V3.61963H90.6953ZM90.7027 3.8692C90.9899 6.21709 91.1756 8.54715 91.2599 10.8595L93.2586 10.7865C93.1721 8.41623 92.9818 6.02949 92.6879 3.62641L90.7027 3.8692ZM92.2593 11.823C92.2531 11.823 92.2467 11.8223 92.241 11.8212C92.2354 11.8201 92.233 11.819 92.2345 11.8196C92.2374 11.8208 92.2616 11.8312 92.3055 11.8684L93.5974 10.3416C93.2353 10.0352 92.7833 9.823 92.2593 9.823V11.823ZM92.9514 12.105H93.0796V10.105H92.9514V12.105ZM93.0796 12.105C93.2766 12.105 93.4767 12.0504 93.5754 12.0231C93.7133 11.9849 93.8784 11.932 94.0644 11.8681C94.4385 11.7397 94.9426 11.5512 95.571 11.3059C96.8301 10.8143 98.625 10.0799 100.951 9.10489L100.178 7.26034C97.8564 8.23353 96.0795 8.96034 94.8436 9.44286C94.2244 9.68461 93.7501 9.86143 93.4149 9.97654C93.2463 10.0344 93.1241 10.0728 93.042 10.0955C92.9206 10.1291 92.968 10.105 93.0796 10.105V12.105ZM101.565 8.18262V8.05444H99.5649V8.18262H101.565ZM100.964 7.13751C99.1721 6.35773 96.674 5.03935 93.4544 3.16551L92.4484 4.89406C95.6888 6.77998 98.2663 8.14471 100.166 8.97138L100.964 7.13751ZM93.2618 3.07918L92.0057 2.66902L91.3849 4.57023L92.641 4.98039L93.2618 3.07918ZM112.049 0.7229L112.346 -0.231956L111.654 -0.44734L111.234 0.143693L112.049 0.7229ZM116.612 5.56787L115.816 6.17295L116.116 6.56787H116.612V5.56787ZM122.688 12.0791L123.004 13.0278L124.45 12.5457L123.432 11.4111L122.688 12.0791ZM120.355 15.5398V16.5398H120.92L121.211 16.0562L120.355 15.5398ZM115.638 22.051L116.442 22.6463L116.455 22.6282L116.468 22.6095L115.638 22.051ZM113.434 22.4612L114.189 21.8055L113.89 21.4612H113.434V22.4612ZM113.28 22.615L113.063 23.5912L114.28 23.8616V22.615H113.28ZM112.588 22.4612L112.805 21.485L112.619 21.4438L112.432 21.4734L112.588 22.4612ZM111.614 22.615L110.729 23.0807L111.062 23.7144L111.769 23.6028L111.614 22.615ZM107.615 17.0779L106.807 17.6676L106.819 17.6835L106.831 17.699L107.615 17.0779ZM105.256 13.7454L105.014 12.7752L104.256 12.9646V13.7454H105.256ZM106.922 11.9509L107.845 12.3355L107.886 12.237L107.906 12.1321L106.922 11.9509ZM107.461 10.9768H108.461V9.97681H107.461V10.9768ZM107.615 11.105V12.105H108.159L108.454 11.6482L107.615 11.105ZM107.896 10.4128H108.896V10.3199L108.879 10.2286L107.896 10.4128ZM107.743 9.59253L107.68 8.59448L106.551 8.66504L106.76 9.77682L107.743 9.59253ZM108.999 6.54199L108.1 6.10432L108.06 6.1856L108.036 6.27267L108.999 6.54199ZM112.459 3.77344L113.167 3.06633L112.133 2.03287L111.544 3.37052L112.459 3.77344ZM108.025 14.1555L107.082 13.8211L106.925 14.2643L107.166 14.6681L108.025 14.1555ZM113.434 21.4871H114.434V21.1429L114.222 20.8716L113.434 21.4871ZM113.28 21.6409V20.6409H111.514L112.422 22.1554L113.28 21.6409ZM113.434 22.051H112.434V23.051H113.434V22.051ZM113.562 22.051V23.051H114.562V22.051H113.562ZM118.817 14.1555L119.624 14.7463L119.723 14.6105L119.773 14.4496L118.817 14.1555ZM120.073 12.2329L120.882 12.8203L121.349 12.1776L120.828 11.5776L120.073 12.2329ZM113.972 21.9229V20.9229H112.972V21.9229H113.972ZM113.972 22.1792H112.972V23.1792H113.972V22.1792ZM114.126 22.1792V23.1792H115.126V22.1792H114.126ZM114.126 21.9229H115.126V20.9229H114.126V21.9229ZM111.752 1.67776C111.746 1.6759 111.778 1.68553 111.853 1.73105C111.925 1.77493 112.019 1.84141 112.138 1.93747C112.376 2.13068 112.676 2.41357 113.039 2.79919C113.764 3.56955 114.689 4.6893 115.816 6.17295L117.408 4.96279C116.263 3.45572 115.29 2.27261 114.495 1.42798C114.098 1.00611 113.73 0.653465 113.396 0.383116C113.08 0.126573 112.722 -0.115176 112.346 -0.231956L111.752 1.67776ZM116.612 6.56787C116.373 6.56787 116.205 6.4788 116.184 6.4683C116.132 6.44215 116.098 6.41844 116.09 6.41264C116.071 6.39952 116.072 6.39807 116.1 6.42299C116.153 6.46899 116.241 6.5524 116.373 6.68332C116.632 6.94142 117.011 7.33765 117.515 7.87789C118.521 8.95584 119.996 10.5778 121.944 12.7471L123.432 11.4111C121.483 9.23954 119.997 7.60593 118.978 6.51346C118.469 5.96851 118.07 5.55083 117.784 5.26633C117.643 5.12595 117.518 5.00588 117.415 4.91623C117.366 4.87332 117.304 4.821 117.236 4.77397C117.204 4.75122 117.149 4.71478 117.08 4.68016C117.042 4.66118 116.861 4.56787 116.612 4.56787V6.56787ZM122.372 11.1304C122.11 11.2175 121.935 11.392 121.886 11.4398C121.802 11.5219 121.721 11.6159 121.647 11.7072C121.498 11.8923 121.322 12.1398 121.122 12.4366C120.718 13.0345 120.176 13.8997 119.499 15.0234L121.211 16.0562C121.884 14.9411 122.405 14.1101 122.78 13.5545C122.969 13.2745 123.109 13.0809 123.206 12.9605C123.229 12.9317 123.248 12.9098 123.262 12.894C123.276 12.8776 123.283 12.8711 123.282 12.8714C123.282 12.8719 123.278 12.8755 123.271 12.8814C123.265 12.8871 123.253 12.8971 123.236 12.9095C123.213 12.9268 123.131 12.9853 123.004 13.0278L122.372 11.1304ZM120.355 14.5398C120.008 14.5398 119.766 14.7169 119.727 14.7437C119.639 14.8049 119.565 14.8724 119.512 14.9235C119.403 15.0295 119.285 15.1642 119.165 15.3096C118.919 15.6059 118.596 16.0335 118.199 16.5809C117.403 17.6805 116.271 19.3198 114.809 21.4926L116.468 22.6095C117.927 20.4415 119.043 18.8252 119.819 17.7543C120.209 17.2165 120.502 16.8302 120.706 16.5839C120.81 16.4579 120.874 16.3892 120.904 16.3595C120.922 16.3428 120.907 16.3594 120.868 16.3868C120.848 16.4007 120.802 16.431 120.735 16.4606C120.676 16.4868 120.54 16.5398 120.355 16.5398V14.5398ZM114.835 21.4558C114.495 21.9148 114.24 22.2496 114.068 22.4663C113.98 22.5768 113.923 22.6433 113.893 22.6768C113.876 22.6961 113.883 22.6864 113.907 22.6649C113.918 22.6556 113.955 22.6225 114.013 22.5858C114.042 22.5672 114.095 22.5361 114.165 22.5074C114.229 22.4816 114.361 22.4353 114.536 22.4353V24.4353C114.846 24.4353 115.061 24.2896 115.085 24.274C115.154 24.2301 115.206 24.1861 115.233 24.1624C115.29 24.1121 115.339 24.0591 115.374 24.0208C115.448 23.9389 115.536 23.8323 115.632 23.7122C115.827 23.4674 116.098 23.1101 116.442 22.6463L114.835 21.4558ZM114.536 22.4353H114.382V24.4353H114.536V22.4353ZM114.382 22.4353C114.56 22.4353 114.692 22.4841 114.745 22.5058C114.808 22.5315 114.852 22.5581 114.874 22.5713C114.916 22.5974 114.937 22.6166 114.93 22.6104C114.918 22.6011 114.881 22.5673 114.81 22.4942C114.672 22.3525 114.467 22.1261 114.189 21.8055L112.679 23.1169C112.964 23.4456 113.199 23.7063 113.377 23.8894C113.464 23.9786 113.554 24.0666 113.639 24.1385C113.68 24.1729 113.742 24.2224 113.816 24.2689C113.854 24.2922 113.913 24.3264 113.988 24.3572C114.054 24.384 114.196 24.4353 114.382 24.4353V22.4353ZM113.434 21.4612C113.228 21.4612 112.89 21.5132 112.611 21.7925C112.332 22.0718 112.28 22.4096 112.28 22.615H114.28C114.28 22.7179 114.253 22.9787 114.025 23.2067C113.797 23.4348 113.536 23.4612 113.434 23.4612V21.4612ZM113.497 21.6388L112.805 21.485L112.371 23.4374L113.063 23.5912L113.497 21.6388ZM112.432 21.4734L111.458 21.6272L111.769 23.6028L112.744 23.4489L112.432 21.4734ZM112.498 22.1492C111.935 21.078 110.54 19.159 108.398 16.4568L106.831 17.699C108.996 20.4314 110.267 22.2037 110.729 23.0807L112.498 22.1492ZM108.422 16.4882C107.637 15.4125 107.051 14.6013 106.662 14.0521C106.467 13.7764 106.326 13.573 106.236 13.4374C106.189 13.368 106.163 13.3268 106.151 13.307C106.144 13.2954 106.151 13.3048 106.162 13.327C106.167 13.3373 106.181 13.3672 106.197 13.4095C106.202 13.4227 106.256 13.56 106.256 13.7454H104.256C104.256 13.935 104.312 14.0786 104.32 14.1002C104.339 14.1508 104.358 14.1911 104.369 14.2137C104.392 14.2608 104.417 14.3032 104.434 14.3327C104.472 14.3952 104.519 14.4688 104.571 14.5468C104.678 14.706 104.831 14.9277 105.029 15.2074C105.427 15.7691 106.02 16.5899 106.807 17.6676L108.422 16.4882ZM105.499 14.7155C106.633 14.432 107.368 13.4817 107.845 12.3355L105.999 11.5663C105.622 12.4709 105.247 12.7169 105.014 12.7752L105.499 14.7155ZM107.906 12.1321C107.931 11.9972 107.956 11.8942 107.979 11.8182C107.991 11.7808 108.001 11.7528 108.009 11.7329C108.013 11.7231 108.016 11.7159 108.018 11.7109C108.021 11.706 108.022 11.7038 108.022 11.704C108.022 11.7042 108.02 11.7073 108.016 11.7129C108.013 11.7184 108.007 11.7269 107.998 11.7377C107.982 11.7586 107.952 11.792 107.905 11.8279C107.802 11.9079 107.647 11.9768 107.461 11.9768V9.97681C106.803 9.97681 106.432 10.4453 106.271 10.7367C106.104 11.0397 106.006 11.4081 105.939 11.7698L107.906 12.1321ZM106.461 10.9768C106.461 11.2265 106.544 11.5789 106.859 11.8412C107.139 12.0743 107.449 12.105 107.615 12.105V10.105C107.677 10.105 107.911 10.1143 108.139 10.3047C108.403 10.5242 108.461 10.8126 108.461 10.9768H106.461ZM108.454 11.6482C108.659 11.3317 108.896 10.8915 108.896 10.4128H106.896C106.896 10.365 106.903 10.334 106.905 10.3243C106.908 10.3144 106.908 10.3179 106.9 10.3368C106.884 10.3768 106.847 10.4503 106.775 10.5617L108.454 11.6482ZM108.879 10.2286L108.726 9.40824L106.76 9.77682L106.914 10.5971L108.879 10.2286ZM107.805 10.5906C108.141 10.5696 108.379 10.4056 108.505 10.2967C108.637 10.1825 108.736 10.0534 108.806 9.94854C108.947 9.73746 109.073 9.47441 109.186 9.19783C109.419 8.63389 109.677 7.83017 109.962 6.81132L108.036 6.27267C107.757 7.27042 107.524 7.98342 107.337 8.43633C107.242 8.66817 107.176 8.78857 107.144 8.83597C107.128 8.8604 107.144 8.82926 107.199 8.78185C107.248 8.73967 107.413 8.6112 107.68 8.59448L107.805 10.5906ZM109.898 6.97967C111.487 3.71581 112.463 1.86768 112.864 1.30211L111.234 0.143693C110.713 0.876944 109.655 2.90821 108.1 6.10432L109.898 6.97967ZM111.544 3.37052C108.973 9.21219 107.474 12.7173 107.082 13.8211L108.967 14.4899C109.327 13.4746 110.785 10.0583 113.375 4.17636L111.544 3.37052ZM107.166 14.6681C107.888 15.8778 109.734 18.3743 112.645 22.1025L114.222 20.8716C111.288 17.1145 109.528 14.7233 108.883 13.6429L107.166 14.6681ZM112.434 21.4871C112.434 21.3842 112.46 21.1234 112.688 20.8953C112.916 20.6673 113.177 20.6409 113.28 20.6409V22.6409C113.485 22.6409 113.823 22.5888 114.102 22.3095C114.382 22.0302 114.434 21.6925 114.434 21.4871H112.434ZM112.422 22.1554C112.453 22.2062 112.461 22.2273 112.459 22.2227C112.458 22.2193 112.452 22.2036 112.446 22.1772C112.441 22.1511 112.434 22.1078 112.434 22.051H114.434C114.434 21.6644 114.26 21.331 114.137 21.1264L112.422 22.1554ZM113.434 23.051H113.562V21.051H113.434V23.051ZM114.562 22.051C114.562 22.2162 114.509 22.2904 114.562 22.1662C114.597 22.0851 114.66 21.9588 114.762 21.7791C114.963 21.4223 115.275 20.9228 115.708 20.2723C116.571 18.9752 117.875 17.1353 119.624 14.7463L118.01 13.5648C116.256 15.9609 114.931 17.8294 114.043 19.1642C113.6 19.8297 113.256 20.3769 113.019 20.7977C112.901 21.0067 112.8 21.202 112.725 21.3751C112.669 21.5051 112.562 21.7662 112.562 22.051H114.562ZM119.773 14.4496C119.756 14.5037 119.749 14.501 119.805 14.4019C119.851 14.3201 119.921 14.2059 120.019 14.0552C120.216 13.7547 120.502 13.3447 120.882 12.8203L119.264 11.6455C118.875 12.1807 118.567 12.6209 118.345 12.9613C118.234 13.131 118.139 13.285 118.063 13.4189C117.997 13.5355 117.912 13.6962 117.861 13.8614L119.773 14.4496ZM120.828 11.5776C117.14 7.3259 114.58 4.47958 113.167 3.06633L111.752 4.48054C113.108 5.83585 115.623 8.62918 119.318 12.8882L120.828 11.5776ZM112.972 21.9229V22.1792H114.972V21.9229H112.972ZM113.972 23.1792H114.126V21.1792H113.972V23.1792ZM115.126 22.1792V21.9229H113.126V22.1792H115.126ZM114.126 20.9229H113.972V22.9229H114.126V20.9229ZM127.661 2.61987L128.514 2.09842L128.147 1.49766L127.458 1.64074L127.661 2.61987ZM127.943 3.31201H126.943V3.32783L126.943 3.34364L127.943 3.31201ZM128.199 14.1042L128.714 14.9617L129.199 14.6704V14.1042H128.199ZM127.943 14.2581V15.2581H128.22L128.457 15.1155L127.943 14.2581ZM126.405 14.2581L125.405 14.2792L125.426 15.2581H126.405V14.2581ZM125.995 3.03003L125.61 2.10695L124.958 2.37876L124.996 3.0844L125.995 3.03003ZM127.943 20.718L128.821 21.1969L128.943 20.973V20.718H127.943ZM127.789 21V22H128.383L128.667 21.4789L127.789 21ZM127.661 20.8718H128.661V19.6696L127.479 19.8885L127.661 20.8718ZM126.969 21V22H127.061L127.151 21.9833L126.969 21ZM125.995 17.5393L125.012 17.355L124.995 17.4464V17.5393H125.995ZM126.808 3.14132C126.885 3.26756 126.926 3.35216 126.946 3.40092C126.956 3.42421 126.956 3.42962 126.954 3.41969C126.952 3.41097 126.943 3.37258 126.943 3.31201H128.943C128.943 3.05029 128.868 2.81635 128.798 2.64632C128.724 2.46437 128.625 2.2798 128.514 2.09842L126.808 3.14132ZM126.943 3.34364C127.114 8.74671 127.199 12.3283 127.199 14.1042H129.199C129.199 12.2913 129.113 8.67809 128.942 3.28038L126.943 3.34364ZM127.685 13.2468L127.428 13.4006L128.457 15.1155L128.714 14.9617L127.685 13.2468ZM127.943 13.2581H126.405V15.2581H127.943V13.2581ZM127.405 14.2369C127.319 10.1944 127.182 6.4405 126.993 2.97565L124.996 3.0844C125.183 6.52386 125.32 10.2553 125.405 14.2792L127.405 14.2369ZM126.379 3.95311C126.377 3.95423 126.384 3.95099 126.406 3.94357C126.427 3.93648 126.456 3.92736 126.495 3.91621C126.571 3.89377 126.674 3.86654 126.804 3.83442C127.065 3.7702 127.417 3.69183 127.864 3.59901L127.458 1.64074C126.59 1.82088 125.924 1.97626 125.61 2.10695L126.379 3.95311ZM127.097 18.1292H127.507V16.1292H127.097V18.1292ZM127.507 18.1292C127.077 18.1292 126.871 17.8331 126.838 17.777C126.806 17.724 126.825 17.7312 126.853 17.8742C126.906 18.1428 126.943 18.6145 126.943 19.3337H128.943C128.943 18.5833 128.907 17.9527 128.815 17.4864C128.771 17.262 128.698 16.9936 128.558 16.7569C128.416 16.5171 128.083 16.1292 127.507 16.1292V18.1292ZM126.943 19.3337V20.718H128.943V19.3337H126.943ZM127.065 20.2392L126.911 20.5211L128.667 21.4789L128.821 21.1969L127.065 20.2392ZM127.789 20C127.9 20 128.168 20.0285 128.4 20.2608C128.632 20.4932 128.661 20.7604 128.661 20.8718H126.661C126.661 21.0687 126.711 21.4 126.986 21.6751C127.261 21.9501 127.592 22 127.789 22V20ZM127.479 19.8885L126.787 20.0167L127.151 21.9833L127.843 21.8551L127.479 19.8885ZM126.969 20H126.405V22H126.969V20ZM126.405 20C126.564 20 126.715 20.0467 126.839 20.124C126.954 20.1958 127.019 20.2773 127.05 20.3223C127.103 20.399 127.095 20.4284 127.072 20.3286C127.029 20.1424 126.995 19.7853 126.995 19.2056H124.995C124.995 19.8221 125.028 20.3622 125.122 20.7742C125.168 20.9734 125.245 21.2271 125.401 21.4534C125.571 21.7021 125.903 22 126.405 22V20ZM126.995 19.2056V17.5393H124.995V19.2056H126.995ZM126.978 17.7236C126.95 17.8679 126.878 17.9901 126.792 18.0742C126.754 18.112 126.719 18.1359 126.695 18.1497C126.673 18.1633 126.658 18.1686 126.657 18.1689C126.656 18.1693 126.665 18.1661 126.685 18.1615C126.705 18.1568 126.734 18.1515 126.773 18.1464C126.851 18.1362 126.958 18.1292 127.097 18.1292V16.1292C126.711 16.1292 126.309 16.1647 125.96 16.2945C125.596 16.4298 125.127 16.7417 125.012 17.355L126.978 17.7236Z" fill="#FFF6F6" mask="url(#path-1-outside-1_734_8056)"/>
</svg>
