<svg width="40" height="64" viewBox="0 0 40 64" fill="none" xmlns="http://www.w3.org/2000/svg">
<path d="M33.5103 14.6954V25.456H38.6118C38.5595 25.5603 38.5386 25.6334 38.4968 25.696C37.6082 26.9589 36.7092 28.2218 35.8101 29.4742C35.737 29.589 35.5488 29.6725 35.4129 29.6725C34.7961 29.6934 34.1793 29.6725 33.5312 29.6725C33.5312 29.8082 33.5208 29.9126 33.5208 30.0274C33.5208 33.5029 33.5208 36.968 33.5208 40.4436C33.5208 40.6314 33.5939 40.8402 33.6985 40.9863C34.5452 42.1344 35.4443 43.2407 36.2701 44.4097C36.7614 45.0985 37.42 45.3385 38.1936 45.4325C38.225 45.4325 38.2563 45.4429 38.3504 45.4742C36.1656 47.426 34.0016 49.3359 31.8168 51.2877C29.7887 48.6575 27.7607 46.0483 25.7326 43.4286C26.2135 43.0633 26.2031 42.4997 26.2972 41.9883C26.339 41.79 26.3285 41.5917 26.3285 41.3829C26.3285 37.563 26.3181 33.7534 26.3076 29.9335V29.7038H23.3596V30.0274C23.3596 34.7136 23.3596 39.3999 23.3805 44.0861C23.3805 44.7332 23.6105 45.3594 24.0287 45.8813C24.175 46.0587 24.1855 46.1631 23.9973 46.3196C21.4466 48.574 18.9063 50.8389 16.366 53.0933C16.3347 53.1246 16.2928 53.1455 16.2092 53.2081C16.2092 53.0411 16.1883 52.9159 16.1883 52.7906V42.3014C16.1883 39.8382 16.1569 37.3855 16.1674 34.9224C16.1674 29.8082 16.1778 24.6941 16.1988 19.5799C16.1988 19.2981 16.1256 19.0894 15.9479 18.8702C14.9547 17.6177 13.9407 16.3653 12.9999 15.0607C12.4981 14.3718 11.8604 14.1109 11.0764 14.0483C11.0241 14.0483 10.9718 14.0483 10.8359 14.0274C16.1151 9.32029 21.3525 4.66536 26.6003 0C27.7502 1.51337 28.8792 2.99543 30.0187 4.47749C30.6146 5.26027 31.2209 6.04305 31.8272 6.81539C32.1513 7.23288 32.4022 7.69211 32.4336 8.2244C32.4649 8.79843 32.2663 9.32029 31.8272 9.70646C30.1546 11.1885 28.482 12.6706 26.7989 14.1526C26.7049 14.2257 26.6003 14.2883 26.4226 14.4031C26.4226 14.017 26.4435 13.7247 26.4226 13.4325C26.3808 12.9419 26.109 12.5558 25.8163 12.18C24.4677 10.4371 23.1192 8.67319 21.7706 6.91976C21.7079 6.83627 21.6347 6.75277 21.5616 6.66928C20.5894 7.53555 19.6276 8.39139 18.6554 9.25766C19.4603 10.3222 20.2653 11.3659 21.0598 12.4201C22.0424 13.7038 23.0147 14.998 24.0078 16.2714C24.1646 16.4801 24.175 16.5949 24.0078 16.8141C23.6001 17.3255 23.391 17.9204 23.391 18.5779C23.391 20.8637 23.391 23.1389 23.391 25.4455H26.2658C26.3808 24.1722 26.4017 22.8363 25.5027 21.8552C28.1579 19.4964 30.8132 17.1272 33.5312 14.7058H33.5208L33.5103 14.6954Z" fill="#FFF6F6"/>
<path d="M14.0795 55.1181C11.4138 57.4873 8.76898 59.8461 6.07189 62.2361V37.2394H3.07164C3.17618 37.0724 3.22845 36.968 3.30163 36.8741C4.14839 35.6738 5.0056 34.4736 5.85236 33.2629C5.96735 33.0959 6.04053 32.8767 6.05098 32.6784C6.07189 31.426 6.06144 30.1839 6.05098 28.9315C6.05098 28.7541 5.98826 28.5558 5.88372 28.4201C4.70244 26.8858 3.5107 25.362 2.31897 23.8278C1.97399 23.379 1.47221 23.3059 0.970422 23.2433C0.844976 23.2329 0.729984 23.2224 0.5 23.2016C2.8103 21.1455 5.04742 19.1624 7.3159 17.1376C9.57393 20.1018 11.8215 23.045 14.0795 26.0091C13.3164 26.7188 13.2328 27.6582 13.2328 28.6288C13.2328 36.6967 13.2328 44.7541 13.2328 52.8115C13.2328 53.6569 13.4628 54.4397 14.0795 55.1076V55.1181Z" fill="#FFF6F6"/>
<path d="M18.6911 64H8.51953C14.3737 58.7919 20.1756 53.6464 26.0088 48.4488C27.2214 50.0352 28.4236 51.6112 29.6363 53.2081C29.4899 53.3438 29.3645 53.4586 29.2286 53.5734C25.9147 56.5271 22.5904 59.4703 19.2765 62.424C19.1197 62.5597 18.9629 62.7162 18.8479 62.8937C18.6493 63.2068 18.4507 63.5408 18.6911 63.9896V64Z" fill="#FFF6F6"/>
<path d="M2.69568 46.1109C2.04754 45.4638 1.38895 44.8063 0.761719 44.18C1.40986 43.5329 2.06845 42.8754 2.69568 42.2492C3.31245 42.865 3.97105 43.5329 4.62964 44.18C4.01286 44.7958 3.35427 45.4534 2.69568 46.1109Z" fill="#FFF6F6"/>
<path d="M0.804688 49.2003C1.41101 48.5949 2.0696 47.9374 2.70728 47.3007C3.33451 47.9269 3.99311 48.5949 4.62034 49.2211C4.00356 49.8369 3.34497 50.4945 2.71774 51.1102C2.11142 50.5049 1.44237 49.8369 0.804688 49.1898V49.2003Z" fill="#FFF6F6"/>
<path d="M4.70292 54.2727C4.01297 54.9615 3.36483 55.6086 2.72715 56.2453C2.07901 55.5982 1.42042 54.9406 0.730469 54.2518C1.30543 53.6777 1.92221 53.0515 2.55989 52.4462C2.61216 52.394 2.81078 52.4149 2.8735 52.4775C3.49028 53.0724 4.0966 53.6777 4.69247 54.2727H4.70292Z" fill="#FFF6F6"/>
<path d="M35.6172 38.4814C36.2653 37.8447 36.9239 37.1768 37.5721 36.5297C38.2097 37.1768 38.8683 37.8447 39.506 38.4918C38.8683 39.1285 38.2097 39.786 37.5616 40.4331C36.9135 39.7965 36.2549 39.1389 35.6172 38.4918V38.4814Z" fill="#FFF6F6"/>
<path d="M37.6034 35.3712C36.9239 34.6928 36.2653 34.0352 35.6172 33.3986C36.2549 32.7515 36.9135 32.0939 37.6034 31.4051C38.1888 32 38.8056 32.6158 39.4015 33.242C39.4537 33.3046 39.4642 33.5029 39.4015 33.5551C38.7952 34.1813 38.1784 34.7867 37.593 35.3816L37.6034 35.3712Z" fill="#FFF6F6"/>
</svg>
