<svg width="36" height="36" viewBox="0 0 36 36" fill="none" xmlns="http://www.w3.org/2000/svg">
<path fill-rule="evenodd" clip-rule="evenodd" d="M19.3263 11.8765C17.3562 12.7297 13.4179 14.4977 7.51286 17.1788C6.55401 17.5763 6.05095 17.9651 6.00537 18.3451C5.92772 18.989 6.70087 19.2423 7.75088 19.5853C7.89437 19.6328 8.04292 19.6803 8.19485 19.7331C9.22966 20.0832 10.6207 20.4931 11.3432 20.5089C11.9999 20.523 12.7325 20.2415 13.5411 19.6645C19.0579 15.7819 21.9057 13.8204 22.0846 13.7782C22.2112 13.7483 22.3868 13.7096 22.505 13.8204C22.6231 13.9295 22.6113 14.1371 22.5995 14.1934C22.5219 14.5329 19.4934 17.469 17.9234 18.989C17.4339 19.4622 17.0878 19.7982 17.0169 19.8756C16.8582 20.0463 16.6962 20.2099 16.5409 20.3664C15.5787 21.3305 14.8595 22.0553 16.5814 23.2375C17.4086 23.8057 18.0703 24.2754 18.7304 24.7433C19.4512 25.2553 20.1703 25.7654 21.1022 26.4023C21.3385 26.5641 21.5647 26.7313 21.7858 26.8949C22.6248 27.5194 23.3794 28.0788 24.3113 27.9908C24.8514 27.9381 25.4119 27.4085 25.6955 25.827C26.3657 22.0869 27.6858 13.9875 27.9913 10.6486C28.0099 10.3713 27.9986 10.0928 27.9576 9.81822C27.933 9.59644 27.8294 9.39237 27.6672 9.24648C27.4258 9.04065 27.0511 8.99667 26.8822 9.00019C26.1209 9.01426 24.9527 9.43823 19.3263 11.8765Z" fill="#BF172B"/>
</svg>
