<svg width="665" height="136" viewBox="0 0 665 136" fill="none" xmlns="http://www.w3.org/2000/svg">
<path d="M644.179 0.627991H664.015V98.068V99.982V115.642V117.904V119.818L657.75 123.298L635.826 136L610.945 121.558L607.812 119.818V117.904V111.814V99.982V98.068V0.627991H627.648V109.552L635.826 114.424L644.179 109.552V0.627991Z" fill="#FFF6F6"/>
<path d="M597.405 20.464V116.164V136H577.569H561.039H541.203V116.164V20.464V0.627991H561.039H577.569H597.405V20.464ZM577.569 116.164V20.464H561.039V116.164H577.569Z" fill="#FFF6F6"/>
<path d="M510.96 0.627991H530.796V33.166V34.906V52.828V54.742V100.33V136H510.96V100.33V46.738H517.05L494.43 33.688V136H474.594V22.378V20.464V18.376V2.542V0.627991L510.96 21.682V0.627991Z" fill="#FFF6F6"/>
<path d="M444.35 0.627991H464.186V20.464V68.836V70.75V88.672V90.412V136H444.35V82.582H450.44L450.092 82.408L444.35 79.102L427.82 69.532V136H407.984V58.048V56.134V38.212V36.472V20.464V0.627991H427.82H444.35ZM444.35 57.352V20.464H427.82V47.782L444.35 57.352Z" fill="#FFF6F6"/>
<path d="M377.741 0.627991H397.577V98.068V99.982V115.642V117.904V119.818L391.313 123.298L369.389 136L344.507 121.558L341.375 119.818V117.904V111.814V99.982V98.068V0.627991H361.211V109.552L369.389 114.424L377.741 109.552V0.627991Z" fill="#FFF6F6"/>
<path d="M330.948 50.74V72.316L325.902 69.358V115.294V136H306.066V115.294V87.628V61.702H312.156L306.066 58.222V58.048L301.02 55.09V53.176V35.254V33.514L306.066 36.298V0.627991H325.902V47.782L330.948 50.74Z" fill="#FFF6F6"/>
<path d="M257.561 20.464V116.164V136H237.725H221.195H201.359V116.164V20.464V0.627991H221.195H237.725H257.561V20.464ZM237.725 116.164V20.464H221.195V116.164H237.725Z" fill="#FFF6F6"/>
<path d="M171.15 0.627991H190.986V20.464V42.562H171.15V20.464H154.62V47.956L174.804 59.614V81.19L154.62 69.532V116.164H171.15V115.294V111.466V110.944V109.03V106.942V91.108V89.368L190.986 100.678V111.466V116.164V122.428V136H171.15H154.62H134.784V116.164V61.18H140.004L134.784 58.222L129.738 55.264V53.35V35.428V33.688L134.784 36.472V20.464V0.627991H154.62H171.15Z" fill="#FFF6F6"/>
<path d="M102.975 0.627991H122.811V68.836V70.75V88.672V90.412V136H102.975V82.582H109.065L108.717 82.408L102.975 79.102L86.4454 69.532V136H66.6094V58.048V56.134V38.212V36.472V0.627991H86.4454V47.782L102.975 57.352V0.627991Z" fill="#FFF6F6"/>
<path d="M56.202 0.627991V20.464H37.932V136H18.096V20.464H0V0.627991H18.096H37.932H56.202Z" fill="#FFF6F6"/>
</svg>
